SplineFontDB: 3.2
FontName: bold
FullName: Jet Impulse Bold
FamilyName: Jet Impulse
Weight: Strong
Copyright: 
Version: 1.0
DefaultBaseFilename: Jet Impulse
ItalicAngle: 0
UnderlinePosition: 77
UnderlineWidth: 51
Ascent: 819
Descent: 205
InvalidEm: 0
sfntRevision: 0x00010000
LayerCount: 2
Layer: 0 1 "Sfondo" 1
Layer: 1 1 "Fore" 0
XUID: [1021 394 1952875658 19760]
StyleMap: 0x0020
FSType: 4
OS2Version: 2
OS2_WeightWidthSlopeOnly: 1
OS2_UseTypoMetrics: 0
CreationTime: 1379761891
ModificationTime: 1778141961
PfmFamily: 81
TTFWeight: 700
TTFWidth: 5
LineGap: 0
VLineGap: 0
Panose: 0 0 8 0 0 0 0 0 0 0
OS2TypoAscent: 576
OS2TypoAOffset: 0
OS2TypoDescent: -64
OS2TypoDOffset: 0
OS2TypoLinegap: 0
OS2WinAscent: 704
OS2WinAOffset: 0
OS2WinDescent: 64
OS2WinDOffset: 0
HheadAscent: 704
HheadAOffset: 0
HheadDescent: -64
HheadDOffset: 0
OS2SubXSize: 512
OS2SubYSize: 512
OS2SubXOff: 0
OS2SubYOff: -32
OS2SupXSize: 512
OS2SupYSize: 512
OS2SupXOff: 0
OS2SupYOff: 512
OS2StrikeYSize: 51
OS2StrikeYPos: 204
OS2CapHeight: 576
OS2XHeight: 384
OS2Vendor: 'FSTR'
OS2CodePages: 00000193.00000000
OS2UnicodeRanges: 80000003.0000000a.00000000.00000000
MarkAttachClasses: 1
DEI: 91125
ShortTable: maxp 16
  1
  0
  157
  52
  13
  0
  0
  2
  0
  0
  0
  0
  0
  0
  0
  0
EndShort
LangName: 1033 "" "" "" "" "" "Version 1.0"
Encoding: UnicodeBmp
UnicodeInterp: none
NameList: AGL For New Fonts
DisplaySize: -48
AntiAlias: 1
FitToEm: 0
WinInfo: 60 20 4
BeginPrivate: 0
EndPrivate
TeXData: 1 0 0 410624 205312 136874 488448 1048576 136874 783286 444596 497025 792723 393216 433062 380633 303038 157286 324010 404750 52429 2506097 1059062 262144
BeginChars: 65539 71

StartChar: comma
Encoding: 44 44 3
Width: 165
VWidth: 1000
GlyphClass: 1
Flags: W
LayerCount: 2
Fore
SplineSet
103.33984375 56.63671875 m 0,0,1
 103.33984375 -11.2451171875 103.33984375 -11.2451171875 91.857421875 -44.375 c 128,-1,2
 80.3740234375 -77.5048828125 80.3740234375 -77.5048828125 53.7626953125 -89.9462890625 c 128,-1,3
 27.150390625 -102.387695312 27.150390625 -102.387695312 -27.5029296875 -102.387695312 c 1,4,5
 -27.5029296875 -80.3759765625 -27.5029296875 -80.3759765625 -19.4169921875 -71.0263671875 c 128,-1,6
 -11.3310546875 -61.67578125 -11.3310546875 -61.67578125 0.208984375 -60.365234375 c 128,-1,7
 11.75 -59.0537109375 11.75 -59.0537109375 23.2900390625 -56.564453125 c 128,-1,8
 34.830078125 -54.076171875 34.830078125 -54.076171875 42.916015625 -39.623046875 c 128,-1,9
 51.0029296875 -25.1708984375 51.0029296875 -25.1708984375 51.0029296875 4.298828125 c 1,10,11
 29.5126953125 4.298828125 29.5126953125 4.298828125 14.0888671875 19.3173828125 c 128,-1,12
 -1.3349609375 34.3349609375 -1.3349609375 34.3349609375 -1.3349609375 56.63671875 c 0,13,14
 -1.3349609375 77.7724609375 -1.3349609375 77.7724609375 14.265625 93.373046875 c 128,-1,15
 29.8662109375 108.973632812 29.8662109375 108.973632812 51.0029296875 108.973632812 c 0,16,17
 73.3037109375 108.973632812 73.3037109375 108.973632812 88.322265625 93.5498046875 c 128,-1,18
 103.33984375 78.1259765625 103.33984375 78.1259765625 103.33984375 56.63671875 c 0,0,1
EndSplineSet
Validated: 1
EndChar

StartChar: hyphen
Encoding: 45 45 4
Width: 430
VWidth: 1000
GlyphClass: 1
Flags: W
LayerCount: 2
Fore
SplineSet
55.1123046875 162.479492188 m 2,0,1
 32.328245555 162.479492188 32.328245555 162.479492188 16.6231071525 177.378997742 c 128,-1,2
 0.91796875 192.278503296 0.91796875 192.278503296 0.91796875 214.666015625 c 0,3,4
 0.91796875 235.895735583 0.91796875 235.895735583 16.804025412 251.374137323 c 128,-1,5
 32.690082074 266.852539062 32.690082074 266.852539062 55.1123046875 266.852539062 c 2,6,-1
 318.051757812 266.852539062 l 2,7,8
 339.127197266 266.852539062 339.127197266 266.852539062 354.682739258 251.29699707 c 128,-1,9
 370.23828125 235.741455078 370.23828125 235.741455078 370.23828125 214.666015625 c 0,10,11
 370.23828125 192.428724463 370.23828125 192.428724463 354.859014942 177.454108325 c 128,-1,12
 339.479748633 162.479492188 339.479748633 162.479492188 318.051757812 162.479492188 c 2,13,-1
 55.1123046875 162.479492188 l 2,0,1
EndSplineSet
Validated: 1
EndChar

StartChar: period
Encoding: 46 46 5
Width: 166
VWidth: 1000
GlyphClass: 1
Flags: W
LayerCount: 2
Fore
SplineSet
54.4072265625 3.841796875 m 0,0,1
 33.3317871094 3.841796875 33.3317871094 3.841796875 17.7762451172 19.3973388672 c 128,-1,2
 2.220703125 34.9528808594 2.220703125 34.9528808594 2.220703125 56.0283203125 c 0,3,4
 2.220703125 78.451108304 2.220703125 78.451108304 17.6990225229 94.336882277 c 128,-1,5
 33.1773419207 110.22265625 33.1773419207 110.22265625 54.4072265625 110.22265625 c 0,6,7
 76.7948992424 110.22265625 76.7948992424 110.22265625 91.6943246212 94.5177982795 c 128,-1,8
 106.59375 78.812940309 106.59375 78.812940309 106.59375 56.0283203125 c 0,9,10
 106.59375 34.6003294916 106.59375 34.6003294916 91.6191338622 19.2210631833 c 128,-1,11
 76.6445177243 3.841796875 76.6445177243 3.841796875 54.4072265625 3.841796875 c 0,0,1
EndSplineSet
Validated: 1
EndChar

StartChar: zero
Encoding: 48 48 6
Width: 599
VWidth: 1000
GlyphClass: 1
Flags: W
LayerCount: 2
Fore
SplineSet
415.987304688 513.806640625 m 1,0,-1
 106.819335938 202.604492188 l 1,1,-1
 106.819335938 483.296875 l 2,2,3
 106.819335938 503.128662109 106.819335938 503.128662109 123.345336914 519.654663086 c 128,-1,4
 139.871337891 536.180664062 139.871337891 536.180664062 159.703125 536.180664062 c 2,5,-1
 372.40234375 536.180664062 l 2,6,7
 400.006297823 536.180664062 400.006297823 536.180664062 415.987304688 513.806640625 c 1,0,-1
212.586914062 643.983398438 m 2,8,9
 170.631002614 643.983398438 170.631002614 643.983398438 134.213677438 632.802812421 c 128,-1,10
 97.7963522613 621.622226404 97.7963522613 621.622226404 66.521094291 597.861951984 c 128,-1,11
 35.2458363207 574.101677563 35.2458363207 574.101677563 17.1312189416 531.166032636 c 128,-1,12
 -0.9833984375 488.230387709 -0.9833984375 488.230387709 -0.9833984375 430.413085938 c 2,13,-1
 -0.9833984375 210.740234375 l 2,14,15
 -0.9833984375 155.100744754 -0.9833984375 155.100744754 17.1550313048 113.49652712 c 128,-1,16
 35.2934610471 71.8923094872 35.2934610471 71.8923094872 66.4972819278 48.6491027624 c 128,-1,17
 97.7011028084 25.4058960377 97.7011028084 25.4058960377 134.237489801 14.3391784876 c 128,-1,18
 170.773876793 3.2724609375 170.773876793 3.2724609375 212.586914062 3.2724609375 c 2,19,-1
 320.389648438 3.2724609375 l 2,20,21
 362.345651099 3.2724609375 362.345651099 3.2724609375 398.762900265 14.4529139965 c 128,-1,22
 435.18014943 25.6333670556 435.18014943 25.6333670556 466.455453007 49.3935368092 c 128,-1,23
 497.730756584 73.1537065628 497.730756584 73.1537065628 515.845358761 116.089419124 c 128,-1,24
 533.959960938 159.025131685 533.959960938 159.025131685 533.959960938 216.842773438 c 2,25,-1
 533.959960938 430.413085938 l 2,26,27
 533.959960938 488.230387709 533.959960938 488.230387709 515.845343559 531.166032636 c 128,-1,28
 497.73072618 574.101677563 497.73072618 574.101677563 466.455468209 597.861951984 c 128,-1,29
 435.180210239 621.622226404 435.180210239 621.622226404 398.762885062 632.802812421 c 128,-1,30
 362.345559886 643.983398438 362.345559886 643.983398438 320.389648438 643.983398438 c 2,31,-1
 212.586914062 643.983398438 l 2,8,9
116.989257812 133.448242188 m 1,32,-1
 426.157226562 444.650390625 l 1,33,-1
 426.157226562 163.958984375 l 2,34,35
 426.157226562 144.127115883 426.157226562 144.127115883 409.631184895 127.600667316 c 128,-1,36
 393.105143229 111.074218748 393.105143229 111.074218748 373.2734375 111.074218747 c 2,37,-1
 159.703125 111.07421875 l 2,38,39
 132.970264678 111.07421875 132.970264678 111.07421875 116.989257812 133.448242188 c 1,32,-1
EndSplineSet
Validated: 9
EndChar

StartChar: one
Encoding: 49 49 7
Width: 275
VWidth: 1000
GlyphClass: 1
Flags: W
LayerCount: 2
Fore
SplineSet
0.4013671875 645.598632812 m 1,0,-1
 214.36328125 645.598632812 l 1,1,-1
 214.36328125 3.7138671875 l 1,2,-1
 107.381835938 3.7138671875 l 1,3,-1
 107.381835938 538.618164062 l 1,4,-1
 0.4013671875 538.618164062 l 1,5,-1
 0.4013671875 645.598632812 l 1,0,-1
EndSplineSet
Validated: 1
EndChar

StartChar: two
Encoding: 50 50 8
Width: 598
VWidth: 1000
GlyphClass: 1
Flags: W
LayerCount: 2
Fore
SplineSet
2.96875 537.618164062 m 1,0,-1
 377.401367188 537.618164062 l 2,1,2
 396.174395138 537.618164062 396.174395138 537.618164062 408.111107279 529.678202311 c 128,-1,3
 420.047819419 521.73824056 420.047819419 521.73824056 424.419623922 506.693990072 c 128,-1,4
 428.791428424 491.649739584 428.791428424 491.649739584 429.841514993 482.038065593 c 128,-1,5
 430.891601562 472.426391602 430.891601562 472.426391602 430.891601562 457.381835938 c 128,-1,6
 430.891601562 442.33770752 430.891601562 442.33770752 429.841512826 432.72618103 c 128,-1,7
 428.791424091 423.114654541 428.791424091 423.114654541 424.419626089 408.070526123 c 128,-1,8
 420.047828087 393.026397705 420.047828087 393.026397705 408.111105112 385.08644104 c 128,-1,9
 396.174382137 377.146484375 396.174382137 377.146484375 377.401367188 377.146484375 c 2,10,-1
 163.439453125 377.146484375 l 2,11,12
 142.126917839 377.146484375 142.126917839 377.146484375 115.590763569 366.731299376 c 128,-1,13
 89.0546092987 356.316114377 89.0546092987 356.316114377 63.3542132378 337.414437319 c 128,-1,14
 37.6538171768 318.51276026 37.6538171768 318.51276026 20.3112835884 286.495551085 c 128,-1,15
 2.96875 254.47834191 2.96875 254.47834191 2.96875 216.674804688 c 2,16,-1
 2.96875 2.7138671875 l 1,17,-1
 377.401367188 2.7138671875 l 2,18,19
 414.690538756 2.7138671875 414.690538756 2.7138671875 442.957277044 15.2505327956 c 128,-1,20
 471.224015332 27.7871984037 471.224015332 27.7871984037 484.018064753 41.9957288011 c 128,-1,21
 496.812114173 56.2042591984 496.812114173 56.2042591984 513.163331731 78.7697893874 c 128,-1,22
 529.51454929 101.335319576 529.51454929 101.335319576 537.873046875 109.693359375 c 1,23,-1
 109.94921875 109.693359375 l 1,24,-1
 109.94921875 216.674804688 l 2,25,26
 109.94921875 236.732503255 109.94921875 236.732503255 126.665079749 253.448771159 c 128,-1,27
 143.380940748 270.165039062 143.380940748 270.165039062 163.439453125 270.165039062 c 2,28,-1
 377.401367188 270.165039062 l 2,29,30
 537.873535156 270.165039062 537.873535156 270.165039062 537.873046875 430.63671875 c 2,31,-1
 537.873046875 484.127929688 l 2,32,33
 537.873046875 521.931115507 537.873046875 521.931115507 520.530359904 553.948113978 c 128,-1,34
 503.187672933 585.965112449 503.187672933 585.965112449 477.487096151 604.866705358 c 128,-1,35
 451.786519368 623.768298267 451.786519368 623.768298267 425.250208537 634.183465539 c 128,-1,36
 398.713897705 644.598632811 398.713897705 644.598632811 377.401367188 644.59863281 c 2,37,-1
 163.439453125 644.598632812 l 2,38,39
 126.15057373 644.598632812 126.15057373 644.598632812 97.8837432832 632.06180572 c 128,-1,40
 69.6169128359 619.524978628 69.6169128359 619.524978628 56.8229675322 605.316795353 c 128,-1,41
 44.0290222285 591.108612078 44.0290222285 591.108612078 27.6775360078 568.5421524 c 128,-1,42
 11.3260497871 545.975692722 11.3260497871 545.975692722 2.96875 537.618164062 c 1,0,-1
EndSplineSet
Validated: 41
EndChar

StartChar: three
Encoding: 51 51 9
Width: 597
VWidth: 1000
GlyphClass: 1
Flags: W
LayerCount: 2
Fore
SplineSet
428.32421875 377.146484375 m 1,0,-1
 0.4013671875 377.146484375 l 1,1,-1
 0.4013671875 270.165039062 l 1,2,-1
 428.32421875 270.165039062 l 1,3,-1
 428.32421875 163.184570312 l 2,4,5
 428.32421875 143.125651042 428.32421875 143.125651042 411.608479819 126.409505208 c 128,-1,6
 394.892740887 109.693359375 394.892740887 109.693359375 374.833984375 109.693359375 c 2,7,-1
 0.4013671875 109.693359375 l 1,8,-1
 0.4013671875 2.7138671875 l 1,9,-1
 374.833984375 2.7138671875 l 2,10,11
 535.306152344 2.7138671875 535.306152344 2.7138671875 535.305664062 163.184570312 c 2,12,-1
 535.305664062 430.63671875 l 2,13,14
 535.305664062 510.872639974 535.305664062 510.872639974 468.442464193 577.735636393 c 128,-1,15
 401.579264323 644.598632812 401.579264323 644.598632812 321.34375 644.598632812 c 2,16,-1
 0.4013671875 644.598632812 l 1,17,-1
 0.4013671875 537.618164062 l 1,18,-1
 321.34375 537.618164062 l 2,19,20
 361.461507161 537.618164062 361.461507161 537.618164062 394.892862956 504.186604818 c 128,-1,21
 428.32421875 470.755045573 428.32421875 470.755045573 428.32421875 430.63671875 c 2,22,-1
 428.32421875 377.146484375 l 1,0,-1
EndSplineSet
Validated: 41
EndChar

StartChar: four
Encoding: 52 52 10
Width: 595
VWidth: 1000
GlyphClass: 1
Flags: W
LayerCount: 2
Fore
SplineSet
107.381835938 323.65625 m 2,0,-1
 107.381835938 644.598632812 l 1,1,-1
 0.4013671875 644.598632812 l 1,2,-1
 0.4013671875 323.65625 l 2,3,4
 0.4013671875 285.852712778 0.4013671875 285.852712778 17.743900776 253.835503603 c 128,-1,5
 35.0864343645 221.818294427 35.0864343645 221.818294427 60.7868304254 202.916617369 c 128,-1,6
 86.4872264863 184.014940311 86.4872264863 184.014940311 113.023380756 173.599755311 c 128,-1,7
 139.559535027 163.184570312 139.559535027 163.184570312 160.872070312 163.184570312 c 2,8,-1
 428.32421875 163.184570312 l 1,9,-1
 428.32421875 2.7138671875 l 1,10,-1
 535.305664062 2.7138671875 l 1,11,-1
 535.305664062 644.598632812 l 1,12,-1
 428.32421875 644.598632812 l 1,13,-1
 428.32421875 270.165039062 l 1,14,-1
 160.872070312 270.165039062 l 2,15,16
 140.8133138 270.165039062 140.8133138 270.165039062 124.097574869 286.881184895 c 128,-1,17
 107.381835938 303.597330729 107.381835938 303.597330729 107.381835938 323.65625 c 2,0,-1
EndSplineSet
Validated: 9
EndChar

StartChar: five
Encoding: 53 53 11
Width: 598
VWidth: 1000
GlyphClass: 1
Flags: W
LayerCount: 2
Fore
SplineSet
108.94921875 538.618164062 m 1,0,-1
 536.873046875 538.618164062 l 1,1,-1
 536.873046875 645.598632812 l 1,2,-1
 1.96875 645.598632812 l 1,3,-1
 1.96875 324.65625 l 1,4,-1
 376.401367188 324.65625 l 2,5,6
 396.460286457 324.65625 396.460286457 324.65625 413.17594401 307.940388997 c 128,-1,7
 429.891601562 291.224527994 429.891601562 291.224527994 429.891601562 271.165039062 c 2,8,-1
 429.891601562 164.184570312 l 2,9,10
 429.891601562 144.125651041 429.891601562 144.125651041 413.175862631 127.409505208 c 128,-1,11
 396.4601237 110.693359375 396.4601237 110.693359375 376.401367188 110.693359375 c 2,12,-1
 1.96875 110.693359375 l 1,13,14
 10.3267517048 102.335586556 10.3267517048 102.335586556 26.6780100257 79.769833884 c 128,-1,15
 43.0292683466 57.2040812119 43.0292683466 57.2040812119 55.8232717126 42.9956843044 c 128,-1,16
 68.6172750786 28.787287397 68.6172750786 28.787287397 96.8839426429 16.2505772922 c 128,-1,17
 125.150610207 3.7138671875 125.150610207 3.7138671875 162.439453125 3.7138671875 c 2,18,-1
 376.401367188 3.7138671875 l 2,19,20
 397.713837624 3.7138671875 397.713837624 3.7138671875 424.250198523 14.129167094 c 128,-1,21
 450.786559422 24.5444670005 450.786559422 24.5444670005 476.487106164 43.4461655475 c 128,-1,22
 502.187652906 62.3478640945 502.187652906 62.3478640945 519.53034989 94.3647933145 c 128,-1,23
 536.873046875 126.381722535 536.873046875 126.381722535 536.873046875 164.184570312 c 2,24,-1
 536.873046875 271.165039062 l 2,25,26
 536.873046875 308.968567617 536.873046875 308.968567617 519.530363242 340.985784015 c 128,-1,27
 502.187679609 373.003000414 502.187679609 373.003000414 476.487092813 391.904673138 c 128,-1,28
 450.786506017 410.806345862 450.786506017 410.806345862 424.250211875 421.221532306 c 128,-1,29
 397.713917732 431.63671875 397.713917732 431.63671875 376.401367188 431.63671875 c 2,30,-1
 108.94921875 431.63671875 l 1,31,-1
 108.94921875 538.618164062 l 1,0,-1
EndSplineSet
Validated: 9
EndChar

StartChar: six
Encoding: 54 54 12
Width: 601
VWidth: 1000
GlyphClass: 1
Flags: W
LayerCount: 2
Fore
SplineSet
164.206054688 270.55859375 m 2,0,1
 144.3129069 270.55859375 144.3129069 270.55859375 127.735555013 253.981038412 c 128,-1,2
 111.158203125 237.403483074 111.158203125 237.403483074 111.158203125 217.510742188 c 2,3,-1
 111.158203125 164.461914062 l 2,4,5
 111.158203125 144.568522133 111.158203125 144.568522133 127.735514323 127.990804036 c 128,-1,6
 144.312825521 111.413085938 144.312825521 111.413085938 164.206054688 111.413085938 c 2,7,-1
 378.44140625 111.413085938 l 2,8,9
 398.334635416 111.413085938 398.334635416 111.413085938 414.911946614 127.990804036 c 128,-1,10
 431.489257812 144.568522133 431.489257812 144.568522133 431.489257812 164.461914062 c 2,11,-1
 431.489257812 217.510742188 l 2,12,13
 431.489257812 275.38165031 431.489257812 275.38165031 378.44140625 270.55859375 c 1,14,-1
 164.206054688 270.55859375 l 2,0,1
378.44140625 378.696289062 m 2,15,16
 399.651639422 378.696289062 399.651639422 378.696289062 426.225758466 368.324029647 c 128,-1,17
 452.799877511 357.951770232 452.799877511 357.951770232 478.707575884 339.048528946 c 128,-1,18
 504.615274257 320.145287661 504.615274257 320.145287661 522.121113691 287.92241832 c 128,-1,19
 539.626953125 255.699548978 539.626953125 255.699548978 539.626953125 217.510742188 c 2,20,-1
 539.626953125 164.461914062 l 2,21,22
 539.626953125 126.272764659 539.626953125 126.272764659 522.121117033 94.0496772884 c 128,-1,23
 504.615280942 61.8265899178 504.615280942 61.8265899178 478.707572542 42.9232688783 c 128,-1,24
 452.799864141 24.0199478389 452.799864141 24.0199478389 426.225761809 13.647669232 c 128,-1,25
 399.651659476 3.275390625 399.651659476 3.275390625 378.44140625 3.275390625 c 2,26,-1
 164.206054688 3.275390625 l 2,27,28
 142.995801462 3.275390625 142.995801462 3.275390625 116.421699129 13.6476692319 c 128,-1,29
 89.847596796 24.0199478389 89.847596796 24.0199478389 63.9398883958 42.9232688783 c 128,-1,30
 38.0321799956 61.8265899178 38.0321799956 61.8265899178 20.5263439041 94.0496772884 c 128,-1,31
 3.0205078125 126.272764659 3.0205078125 126.272764659 3.0205078125 164.461914062 c 2,32,-1
 3.0205078125 431.745117188 l 2,33,34
 3.0205078125 489.742672532 3.0205078125 489.742672532 21.1913965115 532.811904366 c 128,-1,35
 39.3622852105 575.8811362 39.3622852105 575.8811362 70.7348272433 599.715149468 c 128,-1,36
 102.107369276 623.549162735 102.107369276 623.549162735 138.637838162 634.764327462 c 128,-1,37
 175.168307047 645.979492188 175.168307047 645.979492188 217.254882812 645.979492188 c 2,38,-1
 539.626953125 645.979492188 l 1,39,-1
 539.626953125 537.841796875 l 1,40,-1
 217.254882812 537.841796875 l 2,41,42
 177.468261719 537.841796875 177.468261719 537.841796875 144.313232422 504.686767578 c 128,-1,43
 111.158203125 471.531738281 111.158203125 471.531738281 111.158203125 431.745117188 c 2,44,-1
 111.158203125 378.696289062 l 1,45,-1
 378.44140625 378.696289062 l 2,15,16
EndSplineSet
Validated: 33
EndChar

StartChar: seven
Encoding: 55 55 13
Width: 545
VWidth: 1000
GlyphClass: 1
Flags: W
LayerCount: 2
Fore
SplineSet
322.34375 537.618164062 m 1,0,-1
 1.4013671875 537.618164062 l 1,1,-1
 1.4013671875 644.598632812 l 1,2,-1
 482.815429688 644.598632812 l 1,3,-1
 482.815429688 537.618164062 l 1,4,5
 430.513454861 511.467415364 430.513454861 511.467415364 380.588975695 424.69382487 c 128,-1,6
 330.664496528 337.920234375 330.664496528 337.920234375 299.759006076 222.618675131 c 128,-1,7
 268.853515625 107.317115886 268.853515625 107.317115886 268.853515625 2.7138671875 c 1,8,-1
 161.872070312 2.7138671875 l 1,9,10
 161.872070312 149.811962891 161.872070312 149.811962891 218.705908203 320.313061524 c 128,-1,11
 275.539746094 490.814160157 275.539746094 490.814160157 322.34375 537.618164062 c 1,0,-1
EndSplineSet
Validated: 1
EndChar

StartChar: eight
Encoding: 56 56 14
Width: 599
VWidth: 1000
GlyphClass: 1
Flags: W
LayerCount: 2
Fore
SplineSet
377.2734375 3.2724609375 m 2,0,1
 398.418094969 3.2724609375 398.418094969 3.2724609375 424.909928059 13.612479396 c 128,-1,2
 451.40176115 23.9524978545 451.40176115 23.9524978545 477.229247356 42.7970512436 c 128,-1,3
 503.056733561 61.6416046327 503.056733561 61.6416046327 520.508347249 93.7645484876 c 128,-1,4
 537.959960938 125.887492342 537.959960938 125.887492342 537.959960938 163.958007812 c 2,5,-1
 537.959960938 216.842773438 l 2,6,7
 537.959960938 256.846706641 537.959960938 256.846706641 504.484416294 290.745618946 c 128,-1,8
 471.00887165 324.64453125 471.00887165 324.64453125 430.157226562 324.64453125 c 1,9,10
 471.176351955 324.64453125 471.176351955 324.64453125 504.568156447 357.613418342 c 128,-1,11
 537.959960938 390.582305433 537.959960938 390.582305433 537.959960938 430.413085938 c 2,12,-1
 537.959960938 483.296875 l 2,13,14
 537.959960938 521.367395083 537.959960938 521.367395083 520.508340436 553.490487681 c 128,-1,15
 503.056719934 585.61358028 503.056719934 585.61358028 477.229254169 604.458319081 c 128,-1,16
 451.401788403 623.303057883 451.401788403 623.303057883 424.909921246 633.64322816 c 128,-1,17
 398.41805409 643.983398438 398.41805409 643.983398438 377.2734375 643.983398438 c 2,18,-1
 163.703125 643.983398438 l 2,19,20
 142.55850841 643.983398438 142.55850841 643.983398438 116.066641254 633.64322816 c 128,-1,21
 89.5747740973 623.303057883 89.5747740973 623.303057883 63.7473083316 604.458319081 c 128,-1,22
 37.9198425659 585.61358028 37.9198425659 585.61358028 20.4682220642 553.490487681 c 128,-1,23
 3.0166015625 521.367395083 3.0166015625 521.367395083 3.0166015625 483.296875 c 2,24,-1
 3.0166015625 430.413085938 l 2,25,26
 3.0166015625 390.582305433 3.0166015625 390.582305433 36.4084060536 357.613418342 c 128,-1,27
 69.8002105447 324.64453125 69.8002105447 324.64453125 110.819335938 324.64453125 c 1,28,29
 69.9676908497 324.64453125 69.9676908497 324.64453125 36.4921462061 290.745618946 c 128,-1,30
 3.0166015625 256.846706641 3.0166015625 256.846706641 3.0166015625 216.842773438 c 2,31,-1
 3.0166015625 163.958007812 l 2,32,33
 3.0166015625 125.887492342 3.0166015625 125.887492342 20.468215251 93.7645484876 c 128,-1,34
 37.9198289395 61.6416046327 37.9198289395 61.6416046327 63.7473151447 42.7970512436 c 128,-1,35
 89.5748013499 23.9524978545 89.5748013499 23.9524978545 116.066634441 13.612479396 c 128,-1,36
 142.558467531 3.2724609375 142.558467531 3.2724609375 163.703125 3.2724609375 c 2,37,-1
 377.2734375 3.2724609375 l 2,0,1
163.703125 111.07421875 m 2,38,39
 143.87150065 111.07421875 143.87150065 111.07421875 127.345418294 127.600504557 c 128,-1,40
 110.819335938 144.126790363 110.819335938 144.126790363 110.819335938 163.958007812 c 2,41,-1
 110.819335938 216.842773438 l 2,42,43
 110.819335938 236.673990887 110.819335938 236.673990887 127.345418294 253.200276693 c 128,-1,44
 143.87150065 269.7265625 143.87150065 269.7265625 163.703125 269.7265625 c 2,45,-1
 377.2734375 269.7265625 l 2,46,47
 397.10506185 269.7265625 397.10506185 269.7265625 413.631144206 253.200276693 c 128,-1,48
 430.157226562 236.673990887 430.157226562 236.673990887 430.157226562 216.842773438 c 2,49,-1
 430.157226562 163.958007812 l 2,50,51
 430.157226562 144.126790363 430.157226562 144.126790363 413.631144206 127.600504557 c 128,-1,52
 397.10506185 111.07421875 397.10506185 111.07421875 377.2734375 111.07421875 c 2,53,-1
 163.703125 111.07421875 l 2,38,39
377.2734375 536.180664062 m 2,54,55
 397.105224609 536.180664062 397.105224609 536.180664062 413.631225586 519.654663086 c 128,-1,56
 430.157226562 503.128662109 430.157226562 503.128662109 430.157226562 483.296875 c 2,57,-1
 430.157226562 430.413085938 l 2,58,59
 430.157226562 410.581217446 430.157226562 410.581217446 413.631184895 394.054768879 c 128,-1,60
 397.105143229 377.528320312 397.105143229 377.528320312 377.2734375 377.528320312 c 2,61,-1
 163.703125 377.528320312 l 2,62,63
 143.871419271 377.528320312 143.871419271 377.528320312 127.345377605 394.054768879 c 128,-1,64
 110.819335938 410.581217446 110.819335938 410.581217446 110.819335938 430.413085938 c 2,65,-1
 110.819335938 483.296875 l 2,66,67
 110.819335938 503.128662109 110.819335938 503.128662109 127.345336914 519.654663086 c 128,-1,68
 143.871337891 536.180664062 143.871337891 536.180664062 163.703125 536.180664062 c 2,69,-1
 377.2734375 536.180664062 l 2,54,55
EndSplineSet
Validated: 1033
EndChar

StartChar: nine
Encoding: 57 57 15
Width: 602
VWidth: 1000
GlyphClass: 1
Flags: W
LayerCount: 2
Fore
SplineSet
378.44140625 378.696289062 m 2,0,1
 398.334635416 378.696289062 398.334635416 378.696289062 414.911946614 395.27400716 c 128,-1,2
 431.489257812 411.851725259 431.489257812 411.851725259 431.489257812 431.745117188 c 2,3,-1
 431.489257812 484.793945312 l 2,4,5
 431.489257812 504.687255859 431.489257812 504.687255859 414.911987304 521.264526367 c 128,-1,6
 398.334716797 537.841796875 398.334716797 537.841796875 378.44140625 537.841796875 c 2,7,-1
 164.206054688 537.841796875 l 2,8,9
 144.312744141 537.841796875 144.312744141 537.841796875 127.735473633 521.264526367 c 128,-1,10
 111.158203125 504.687255859 111.158203125 504.687255859 111.158203125 484.793945312 c 2,11,-1
 111.158203125 431.745117188 l 2,12,13
 111.158203125 373.874386621 111.158203125 373.874386621 164.206054688 378.696289062 c 1,14,-1
 378.44140625 378.696289062 l 2,0,1
164.206054688 270.55859375 m 2,15,16
 142.995801462 270.55859375 142.995801462 270.55859375 116.421699129 280.930872357 c 128,-1,17
 89.847596796 291.303150964 89.847596796 291.303150964 63.9398883958 310.206472003 c 128,-1,18
 38.0321799956 329.109793043 38.0321799956 329.109793043 20.5263439041 361.332880414 c 128,-1,19
 3.0205078125 393.555967785 3.0205078125 393.555967785 3.0205078125 431.745117188 c 2,20,-1
 3.0205078125 484.793945312 l 2,21,22
 3.0205078125 522.983090102 3.0205078125 522.983090102 20.5263370908 555.20602873 c 128,-1,23
 38.0321663692 587.428967357 38.0321663692 587.428967357 63.939895209 606.332102984 c 128,-1,24
 89.8476240489 625.235238612 89.8476240489 625.235238612 116.421692316 635.6073654 c 128,-1,25
 142.995760582 645.979492188 142.995760582 645.979492188 164.206054688 645.979492188 c 2,26,-1
 378.44140625 645.979492188 l 2,27,28
 399.651700355 645.979492188 399.651700355 645.979492188 426.225768622 635.6073654 c 128,-1,29
 452.799836888 625.235238612 452.799836888 625.235238612 478.707565728 606.332102984 c 128,-1,30
 504.615294568 587.428967357 504.615294568 587.428967357 522.121123847 555.20602873 c 128,-1,31
 539.626953125 522.983090102 539.626953125 522.983090102 539.626953125 484.793945312 c 2,32,-1
 539.626953125 217.509765625 l 2,33,34
 539.626953125 159.512550263 539.626953125 159.512550263 521.456049224 116.443386063 c 128,-1,35
 503.285145323 73.3742218623 503.285145323 73.3742218623 471.912648896 49.5401039275 c 128,-1,36
 440.54015247 25.7059859927 440.54015247 25.7059859927 404.009607573 14.4906883089 c 128,-1,37
 367.479062677 3.275390625 367.479062677 3.275390625 325.392578125 3.275390625 c 2,38,-1
 3.0205078125 3.275390625 l 1,39,-1
 3.0205078125 111.413085938 l 1,40,-1
 325.392578125 111.413085938 l 2,41,42
 365.179036459 111.413085938 365.179036459 111.413085938 398.334147135 144.568400065 c 128,-1,43
 431.489257812 177.723714192 431.489257812 177.723714192 431.489257812 217.509765625 c 2,44,-1
 431.489257812 270.55859375 l 1,45,-1
 164.206054688 270.55859375 l 2,15,16
EndSplineSet
Validated: 33
EndChar

StartChar: colon
Encoding: 58 58 16
Width: 168
VWidth: 1000
GlyphClass: 1
Flags: W
LayerCount: 2
Fore
SplineSet
55.1611328125 3.607421875 m 0,0,1
 32.6722496631 3.607421875 32.6722496631 3.607421875 16.7394451441 19.1319775097 c 128,-1,2
 0.806640625 34.6565331443 0.806640625 34.6565331443 0.806640625 55.94921875 c 0,3,4
 0.806640625 78.5971679688 0.806640625 78.5971679688 16.6599121094 94.4504394531 c 128,-1,5
 32.5131835938 110.303710938 32.5131835938 110.303710938 55.1611328125 110.303710938 c 0,6,7
 76.4543818189 110.303710938 76.4543818189 110.303710938 91.9786557532 94.3709921372 c 128,-1,8
 107.502929688 78.4382733369 107.502929688 78.4382733369 107.502929688 55.94921875 c 0,9,10
 107.502929688 34.8113563928 107.502929688 34.8113563928 91.9011615959 19.2093891339 c 128,-1,11
 76.2993935043 3.607421875 76.2993935043 3.607421875 55.1611328125 3.607421875 c 0,0,1
55.1611328125 319.670898438 m 0,12,13
 32.6720782256 319.670898438 32.6720782256 319.670898438 16.7393594253 335.195172372 c 128,-1,14
 0.806640625 350.719446306 0.806640625 350.719446306 0.806640625 372.012695312 c 0,15,16
 0.806640625 394.660081131 0.806640625 394.660081131 16.6599966189 410.513634315 c 128,-1,17
 32.5133526128 426.3671875 32.5133526128 426.3671875 55.1611328125 426.3671875 c 0,18,19
 76.4542171328 426.3671875 76.4542171328 426.3671875 91.9785734101 410.434186011 c 128,-1,20
 107.502929688 394.501184522 107.502929688 394.501184522 107.502929688 372.012695312 c 0,21,22
 107.502929688 350.874267578 107.502929688 350.874267578 91.9012451172 335.272583008 c 128,-1,23
 76.2995605469 319.670898438 76.2995605469 319.670898438 55.1611328125 319.670898438 c 0,12,13
EndSplineSet
Validated: 1
EndChar

StartChar: semicolon
Encoding: 59 59 17
Width: 164
VWidth: 1000
GlyphClass: 1
Flags: W
LayerCount: 2
Fore
SplineSet
102.5703125 56.310546875 m 0,0,1
 102.5703125 -11.4326171875 102.5703125 -11.4326171875 91.1103515625 -44.4951171875 c 128,-1,2
 79.6513671875 -77.5576171875 79.6513671875 -77.5576171875 53.09375 -89.9736328125 c 128,-1,3
 26.5361328125 -102.389648438 26.5361328125 -102.389648438 -28.005859375 -102.389648438 c 1,4,5
 -28.005859375 -80.4228515625 -28.005859375 -80.4228515625 -19.9365234375 -71.091796875 c 128,-1,6
 -11.8671875 -61.7607421875 -11.8671875 -61.7607421875 -0.3505859375 -60.4521484375 c 128,-1,7
 11.1669921875 -59.14453125 11.1669921875 -59.14453125 22.68359375 -56.66015625 c 128,-1,8
 34.2001953125 -54.1767578125 34.2001953125 -54.1767578125 42.26953125 -39.7529296875 c 128,-1,9
 50.33984375 -25.330078125 50.33984375 -25.330078125 50.33984375 4.080078125 c 1,10,11
 27.740234375 4.080078125 27.740234375 4.080078125 12.9248046875 18.8955078125 c 128,-1,12
 -1.890625 33.7109375 -1.890625 33.7109375 -1.890625 56.310546875 c 0,13,14
 -1.890625 77.755859375 -1.890625 77.755859375 13.0966796875 93.1484375 c 128,-1,15
 28.0830078125 108.541015625 28.0830078125 108.541015625 50.33984375 108.541015625 c 0,16,17
 71.4326171875 108.541015625 71.4326171875 108.541015625 87.0009765625 92.9716796875 c 128,-1,18
 102.5703125 77.4033203125 102.5703125 77.4033203125 102.5703125 56.310546875 c 0,0,1
50.33984375 319.471679688 m 0,19,20
 28.0830078125 319.471679688 28.0830078125 319.471679688 13.0966796875 334.86328125 c 128,-1,21
 -1.890625 350.255859375 -1.890625 350.255859375 -1.890625 371.702148438 c 0,22,23
 -1.890625 394.504882812 -1.890625 394.504882812 13.0205078125 410.22265625 c 128,-1,24
 27.9326171875 425.94140625 27.9326171875 425.94140625 50.33984375 425.94140625 c 0,25,26
 71.5869140625 425.94140625 71.5869140625 425.94140625 87.078125 410.041992188 c 128,-1,27
 102.5703125 394.142578125 102.5703125 394.142578125 102.5703125 371.702148438 c 0,28,29
 102.5703125 350.608398438 102.5703125 350.608398438 87.0009765625 335.040039062 c 128,-1,30
 71.4326171875 319.471679688 71.4326171875 319.471679688 50.33984375 319.471679688 c 0,19,20
EndSplineSet
Validated: 1
EndChar

StartChar: equal
Encoding: 61 61 18
Width: 434
VWidth: 1000
GlyphClass: 1
Flags: W
LayerCount: 2
Fore
SplineSet
56.4482421875 99.7890625 m 2,0,1
 33.5963028658 99.7890625 33.5963028658 99.7890625 17.8450264329 114.73275197 c 128,-1,2
 2.09375 129.67644144 2.09375 129.67644144 2.09375 152.130859375 c 0,3,4
 2.09375 173.423544981 2.09375 173.423544981 18.0265545191 188.948100615 c 128,-1,5
 33.9593590381 204.47265625 33.9593590381 204.47265625 56.4482421875 204.47265625 c 2,6,-1
 320.169921875 204.47265625 l 2,7,8
 341.308182567 204.47265625 341.308182567 204.47265625 356.909950658 188.870688991 c 128,-1,9
 372.51171875 173.268721732 372.51171875 173.268721732 372.51171875 152.130859375 c 0,10,11
 372.51171875 129.827189353 372.51171875 129.827189353 357.086825162 114.808125926 c 128,-1,12
 341.661931575 99.7890625 341.661931575 99.7890625 320.169921875 99.7890625 c 2,13,-1
 56.4482421875 99.7890625 l 2,0,1
56.4482421875 309.15625 m 2,14,15
 33.9591876006 309.15625 33.9591876006 309.15625 18.0264688003 324.680523934 c 128,-1,16
 2.09375 340.204797869 2.09375 340.204797869 2.09375 361.498046875 c 0,17,18
 2.09375 384.145432693 2.09375 384.145432693 17.9471059939 399.998985878 c 128,-1,19
 33.8004619878 415.852539062 33.8004619878 415.852539062 56.4482421875 415.852539062 c 2,20,-1
 320.169921875 415.852539062 l 2,21,22
 341.463006195 415.852539062 341.463006195 415.852539062 356.987362473 399.919537574 c 128,-1,23
 372.51171875 383.986536085 372.51171875 383.986536085 372.51171875 361.498046875 c 0,24,25
 372.51171875 340.359619141 372.51171875 340.359619141 356.91003418 324.75793457 c 128,-1,26
 341.308349609 309.15625 341.308349609 309.15625 320.169921875 309.15625 c 2,27,-1
 56.4482421875 309.15625 l 2,14,15
EndSplineSet
Validated: 1
EndChar

StartChar: A
Encoding: 65 65 19
Width: 597
VWidth: 1000
GlyphClass: 1
Flags: W
LayerCount: 2
Fore
SplineSet
155.202148438 217.208007812 m 1,0,-1
 110.454101562 82.9638671875 l 1,1,-1
 110.454101562 3.6376953125 l 1,2,-1
 2.65234375 3.6376953125 l 1,3,-1
 2.65234375 56.521484375 l 1,4,-1
 204.018554688 644.34765625 l 1,5,-1
 336.228515625 644.34765625 l 1,6,-1
 537.594726562 56.521484375 l 1,7,-1
 537.594726562 3.6376953125 l 1,8,-1
 429.791992188 3.6376953125 l 1,9,-1
 429.791992188 82.9638671875 l 1,10,-1
 385.043945312 217.208007812 l 1,11,-1
 155.202148438 217.208007812 l 1,0,-1
189.780273438 325.009765625 m 1,12,-1
 350.465820312 325.009765625 l 1,13,-1
 297.58203125 483.662109375 l 1,14,-1
 240.629882812 483.662109375 l 1,15,-1
 189.780273438 325.009765625 l 1,12,-1
EndSplineSet
Validated: 1
EndChar

StartChar: B
Encoding: 66 66 20
Width: 600
VWidth: 1000
GlyphClass: 1
Flags: W
LayerCount: 2
Fore
SplineSet
3.0166015625 643.983398438 m 1,0,-1
 3.0166015625 3.2734375 l 1,1,-1
 324.391601562 3.2734375 l 2,2,3
 441.632568177 3.2734375 441.632568177 3.2734375 489.795287995 41.8776118078 c 128,-1,4
 537.958007812 80.4817861155 537.958007812 80.4817861155 537.958007812 163.958007812 c 0,5,6
 537.958007812 195.298111757 537.958007812 195.298111757 534.077881319 218.067150803 c 128,-1,7
 530.197754825 240.836189849 530.197754825 240.836189849 525.828095243 254.588294509 c 128,-1,8
 521.458435661 268.340399168 521.458435661 268.340399168 508.272412569 282.340885178 c 128,-1,9
 495.086389477 296.341371189 495.086389477 296.341371189 486.842313993 302.752497634 c 128,-1,10
 478.59823851 309.163624079 478.59823851 309.163624079 456.6015625 324.642578125 c 1,11,12
 482.844801108 342.138226084 482.844801108 342.138226084 493.423525201 350.761876688 c 128,-1,13
 504.002249294 359.385527292 504.002249294 359.385527292 516.932523383 377.279825582 c 128,-1,14
 529.862797472 395.174123872 529.862797472 395.174123872 533.910402642 419.793035135 c 128,-1,15
 537.958007812 444.411946399 537.958007812 444.411946399 537.958007812 483.297851562 c 0,16,17
 537.958007812 534.726988491 537.958007812 534.726988491 506.067833304 572.260767305 c 128,-1,18
 474.177658796 609.794546119 474.177658796 609.794546119 426.794145862 626.888972279 c 128,-1,19
 379.410632929 643.983398438 379.410632929 643.983398438 324.391601562 643.983398438 c 2,20,-1
 3.0166015625 643.983398438 l 1,0,-1
110.8203125 536.1796875 m 1,21,-1
 324.391601562 536.1796875 l 2,22,23
 367.36007691 536.1796875 367.36007691 536.1796875 398.76011658 515.245876737 c 128,-1,24
 430.16015625 494.312065973 430.16015625 494.312065973 430.16015625 456.852539062 c 128,-1,25
 430.16015625 419.392768016 430.16015625 419.392768016 398.76062014 398.461032445 c 128,-1,26
 367.361084029 377.529296875 367.361084029 377.529296875 324.391601562 377.529296875 c 2,27,-1
 110.8203125 377.529296875 l 1,28,-1
 110.8203125 536.1796875 l 1,21,-1
110.8203125 269.7265625 m 1,29,-1
 324.391601562 269.7265625 l 2,30,31
 367.360168463 269.7265625 367.360168463 269.7265625 398.760162356 248.792588977 c 128,-1,32
 430.16015625 227.858615453 430.16015625 227.858615453 430.16015625 190.3984375 c 128,-1,33
 430.16015625 152.938910589 430.16015625 152.938910589 398.76011658 132.005099826 c 128,-1,34
 367.36007691 111.071289062 367.36007691 111.071289062 324.391601562 111.071289062 c 2,35,-1
 110.8203125 111.071289062 l 1,36,-1
 110.8203125 269.7265625 l 1,29,-1
EndSplineSet
EndChar

StartChar: C
Encoding: 67 67 21
Width: 597
VWidth: 1000
GlyphClass: 1
Flags: W
LayerCount: 2
Fore
SplineSet
0.4013671875 216.673828125 m 2,0,-1
 0.4013671875 430.63671875 l 2,1,2
 0.4013671875 472.983543113 0.4013671875 472.983543113 11.6645786 509.572528792 c 128,-1,3
 22.9277900125 546.16151447 22.9277900125 546.16151447 46.8074520397 577.364254044 c 128,-1,4
 70.6871140669 608.566993619 70.6871140669 608.566993619 113.630734606 626.582813215 c 128,-1,5
 156.574355145 644.598632812 156.574355145 644.598632812 214.36328125 644.598632812 c 2,6,-1
 374.833984375 644.598632812 l 2,7,8
 412.564052037 644.598632812 412.564052037 644.598632812 438.095513571 634.429906845 c 128,-1,9
 463.626975105 624.261180877 463.626975105 624.261180877 474.551932108 612.142328262 c 128,-1,10
 485.476889111 600.023475647 485.476889111 600.023475647 503.287133444 575.924962997 c 128,-1,11
 521.097377777 551.826450347 521.097377777 551.826450347 535.305664062 537.618164062 c 1,12,-1
 214.36328125 537.618164062 l 2,13,14
 174.244873047 537.618164062 174.244873047 537.618164062 140.813354492 504.186645508 c 128,-1,15
 107.381835938 470.755126953 107.381835938 470.755126953 107.381835938 430.63671875 c 2,16,-1
 107.381835938 216.673828125 l 2,17,18
 107.381835938 176.555501303 107.381835938 176.555501303 140.813313801 143.124430339 c 128,-1,19
 174.244791665 109.693359375 174.244791665 109.693359375 214.36328125 109.693359375 c 2,20,-1
 535.305664062 109.693359375 l 1,21,22
 521.097293853 95.4852485657 521.097293853 95.4852485657 503.287115512 71.3870932261 c 128,-1,23
 485.476937171 47.2889378866 485.476937171 47.2889378866 474.55195004 35.1700814565 c 128,-1,24
 463.626962909 23.0512250264 463.626962909 23.0512250264 438.095495639 12.882546107 c 128,-1,25
 412.56402837 2.7138671875 412.56402837 2.7138671875 374.833984375 2.7138671875 c 2,26,-1
 214.36328125 2.7138671875 l 2,27,28
 156.574355145 2.7138671875 156.574355145 2.7138671875 113.630734606 20.7295223283 c 128,-1,29
 70.687114067 38.7451774692 70.687114067 38.7451774692 46.8074520397 69.9476322127 c 128,-1,30
 22.9277900124 101.150086956 22.9277900124 101.150086956 11.6645786 137.738738637 c 128,-1,31
 0.4013671875 174.327390318 0.4013671875 174.327390318 0.4013671875 216.673828125 c 2,0,-1
EndSplineSet
Validated: 1
EndChar

StartChar: D
Encoding: 68 68 22
Width: 599
VWidth: 1000
GlyphClass: 1
Flags: W
LayerCount: 2
Fore
SplineSet
110.819335938 536.180664062 m 1,0,-1
 110.819335938 111.07421875 l 1,1,-1
 350.831054688 111.07421875 l 2,2,3
 430.158203124 111.07421875 430.158203124 111.07421875 430.157226562 190.400390625 c 2,4,-1
 430.157226562 377.528320312 l 2,5,6
 430.157226562 536.181152344 430.157226562 536.181152344 271.504882812 536.180664062 c 2,7,-1
 110.819335938 536.180664062 l 1,0,-1
216.586914062 643.983398438 m 2,8,9
 297.60736606 643.983398438 297.60736606 643.983398438 370.74746326 611.145399306 c 128,-1,10
 443.88756046 578.307400174 443.88756046 578.307400174 490.923760699 516.134548611 c 128,-1,11
 537.959960938 453.961697048 537.959960938 453.961697048 537.959960938 377.528320312 c 2,12,-1
 537.959960938 216.842773438 l 2,13,14
 537.959960938 96.3280765445 537.959960938 96.3280765445 491.431982609 49.800268741 c 128,-1,15
 444.904004279 3.2724609375 444.904004279 3.2724609375 324.389648438 3.2724609375 c 2,16,-1
 3.0166015625 3.2724609375 l 1,17,-1
 3.0166015625 643.983398438 l 1,18,-1
 216.586914062 643.983398438 l 2,8,9
EndSplineSet
EndChar

StartChar: E
Encoding: 69 69 23
Width: 597
VWidth: 1000
GlyphClass: 1
Flags: W
LayerCount: 2
Fore
SplineSet
0.4013671875 2.7138671875 m 1,0,-1
 0.4013671875 644.598632812 l 1,1,-1
 535.305664062 644.598632812 l 1,2,-1
 535.305664062 537.618164062 l 1,3,-1
 107.381835938 537.618164062 l 1,4,-1
 107.381835938 377.146484375 l 1,5,-1
 535.305664062 377.146484375 l 1,6,-1
 535.305664062 270.165039062 l 1,7,-1
 107.381835938 270.165039062 l 1,8,-1
 107.381835938 109.693359375 l 1,9,-1
 535.305664062 109.693359375 l 1,10,-1
 535.305664062 2.7138671875 l 1,11,-1
 0.4013671875 2.7138671875 l 1,0,-1
EndSplineSet
Validated: 1
EndChar

StartChar: F
Encoding: 70 70 24
Width: 544
VWidth: 1000
GlyphClass: 1
Flags: W
LayerCount: 2
Fore
SplineSet
1.013671875 2.255859375 m 2,0,-1
 108.48046875 2.255859375 l 2,1,2
 109.494140625 2.255859375 109.494140625 2.255859375 109.494140625 3.26953125 c 2,3,-1
 109.494140625 267.880859375 l 1,4,-1
 481.572265625 267.880859375 l 2,5,6
 482.5859375 267.880859375 482.5859375 267.880859375 482.5859375 268.89453125 c 2,7,-1
 482.5859375 376.361328125 l 2,8,9
 482.5859375 377.375 482.5859375 377.375 481.572265625 377.375 c 2,10,-1
 109.494140625 377.375 l 1,11,-1
 109.494140625 533.505859375 l 1,12,-1
 481.572265625 533.505859375 l 2,13,14
 482.5859375 533.505859375 482.5859375 533.505859375 482.5859375 534.51953125 c 2,15,-1
 482.5859375 641.986328125 l 2,16,17
 482.5859375 643 482.5859375 643 481.572265625 643 c 2,18,-1
 1.013671875 643 l 2,19,20
 0 643 0 643 0 641.986328125 c 2,21,-1
 0 3.26953125 l 2,22,23
 0 2.255859375 0 2.255859375 1.013671875 2.255859375 c 2,0,-1
107.466796875 4.283203125 m 1,24,-1
 2.02734375 4.283203125 l 1,25,-1
 2.02734375 640.97265625 l 1,26,-1
 480.55859375 640.97265625 l 1,27,-1
 480.55859375 535.533203125 l 1,28,-1
 108.48046875 535.533203125 l 2,29,30
 107.466796875 535.533203125 107.466796875 535.533203125 107.466796875 534.51953125 c 2,31,-1
 107.466796875 376.361328125 l 2,32,33
 107.466796875 375.34765625 107.466796875 375.34765625 108.48046875 375.34765625 c 2,34,-1
 480.55859375 375.34765625 l 1,35,-1
 480.55859375 269.908203125 l 1,36,-1
 108.48046875 269.908203125 l 2,37,38
 107.466796875 269.908203125 107.466796875 269.908203125 107.466796875 268.89453125 c 2,39,-1
 107.466796875 4.283203125 l 1,24,-1
1.013671875 3.26953125 m 1,40,-1
 1.013671875 641.986328125 l 1,41,-1
 481.572265625 641.986328125 l 1,42,-1
 481.572265625 534.51953125 l 1,43,-1
 108.48046875 534.51953125 l 1,44,-1
 108.48046875 376.361328125 l 1,45,-1
 481.572265625 376.361328125 l 1,46,-1
 481.572265625 268.89453125 l 1,47,-1
 108.48046875 268.89453125 l 1,48,-1
 108.48046875 3.26953125 l 1,49,-1
 1.013671875 3.26953125 l 1,40,-1
EndSplineSet
EndChar

StartChar: G
Encoding: 71 71 25
Width: 597
VWidth: 1000
GlyphClass: 1
Flags: W
LayerCount: 2
Fore
SplineSet
0.4013671875 216.673828125 m 2,0,-1
 0.4013671875 430.63671875 l 2,1,2
 0.4013671875 472.983543113 0.4013671875 472.983543113 11.6645786 509.572528792 c 128,-1,3
 22.9277900125 546.16151447 22.9277900125 546.16151447 46.8074520397 577.364254044 c 128,-1,4
 70.6871140669 608.566993619 70.6871140669 608.566993619 113.630734606 626.582813215 c 128,-1,5
 156.574355145 644.598632812 156.574355145 644.598632812 214.36328125 644.598632812 c 2,6,-1
 535.305664062 644.598632812 l 1,7,-1
 535.305664062 537.618164062 l 1,8,-1
 187.618164062 537.618164062 l 2,9,10
 107.381347656 537.618164062 107.381347656 537.618164062 107.381835938 457.381835938 c 2,11,-1
 107.381835938 189.928710938 l 2,12,13
 107.381835938 109.691894531 107.381835938 109.691894531 187.618164062 109.693359375 c 2,14,-1
 348.087890625 109.693359375 l 2,15,16
 428.324707031 109.693359375 428.324707031 109.693359375 428.32421875 189.928710938 c 2,17,-1
 428.32421875 270.165039062 l 1,18,-1
 267.853515625 270.165039062 l 1,19,-1
 267.853515625 377.146484375 l 1,20,-1
 535.305664062 377.146484375 l 1,21,-1
 535.305664062 163.184570312 l 2,22,23
 535.305664062 2.71386718775 535.305664062 2.71386718775 374.833984375 2.7138671875 c 2,24,-1
 214.36328125 2.7138671875 l 2,25,26
 94.009619141 2.7138671875 94.009619141 2.7138671875 47.2054931642 49.5176513674 c 128,-1,27
 0.4013671875 96.3214355472 0.4013671875 96.3214355472 0.4013671875 216.673828125 c 2,0,-1
EndSplineSet
Validated: 33
EndChar

StartChar: I
Encoding: 73 73 26
Width: 172
VWidth: 1000
GlyphClass: 1
Flags: W
LayerCount: 2
Fore
SplineSet
109.381835938 3.7138671875 m 1,0,-1
 2.4013671875 3.7138671875 l 1,1,-1
 2.4013671875 645.598632812 l 1,2,-1
 109.381835938 645.598632812 l 1,3,-1
 109.381835938 3.7138671875 l 1,0,-1
EndSplineSet
Validated: 1
EndChar

StartChar: J
Encoding: 74 74 27
Width: 487
VWidth: 1000
GlyphClass: 1
Flags: W
LayerCount: 2
Fore
SplineSet
0.4013671875 3.7138671875 m 1,0,-1
 0.4013671875 110.693359375 l 1,1,-1
 214.36328125 110.693359375 l 2,2,3
 254.480794272 110.693359375 254.480794272 110.693359375 287.912272136 144.12504069 c 128,-1,4
 321.34375 177.556722005 321.34375 177.556722005 321.34375 217.673828125 c 2,5,-1
 321.34375 538.618164062 l 1,6,-1
 267.853515625 538.618164062 l 1,7,-1
 267.853515625 645.598632812 l 1,8,-1
 428.32421875 645.598632812 l 1,9,-1
 428.32421875 271.165039062 l 2,10,11
 428.32421875 213.829837494 428.32421875 213.829837494 401.690530396 162.150416641 c 128,-1,12
 375.056842041 110.470995788 375.056842041 110.470995788 334.604742431 76.7889601898 c 128,-1,13
 294.152642822 43.106924591 294.152642822 43.106924591 247.905709839 23.4103958893 c 128,-1,14
 201.658776856 3.7138671875 201.658776856 3.7138671875 160.872070312 3.7138671875 c 2,15,-1
 0.4013671875 3.7138671875 l 1,0,-1
EndSplineSet
Validated: 1
EndChar

StartChar: K
Encoding: 75 75 28
Width: 544
VWidth: 1000
GlyphClass: 1
Flags: W
LayerCount: 2
Fore
SplineSet
0.4013671875 3.7138671875 m 1,0,-1
 0.4013671875 645.598632812 l 1,1,-1
 107.381835938 645.598632812 l 1,2,-1
 107.381835938 378.146484375 l 1,3,-1
 374.833984375 645.598632812 l 1,4,-1
 481.815429688 645.598632812 l 1,5,-1
 214.36328125 378.146484375 l 1,6,-1
 267.853515625 378.146484375 l 2,7,8
 348.088867188 378.146484375 348.088867188 378.146484375 414.952148438 311.283203125 c 128,-1,9
 481.815429688 244.419921875 481.815429688 244.419921875 481.815429688 164.184570312 c 2,10,-1
 481.815429688 3.7138671875 l 1,11,-1
 374.833984375 3.7138671875 l 1,12,-1
 374.833984375 164.184570312 l 2,13,14
 374.833984375 204.301676432 374.833984375 204.301676432 341.402506511 237.733357747 c 128,-1,15
 307.971028647 271.165039062 307.971028647 271.165039062 267.853515625 271.165039062 c 2,16,-1
 107.381835938 271.165039062 l 1,17,-1
 107.381835938 3.7138671875 l 1,18,-1
 0.4013671875 3.7138671875 l 1,0,-1
EndSplineSet
Validated: 1
EndChar

StartChar: L
Encoding: 76 76 29
Width: 489
VWidth: 1000
GlyphClass: 1
Flags: W
LayerCount: 2
Fore
SplineSet
0.4013671875 3.7138671875 m 1,0,-1
 0.4013671875 645.598632812 l 1,1,-1
 107.381835938 645.598632812 l 1,2,-1
 107.381835938 110.693359375 l 1,3,-1
 428.32421875 110.693359375 l 1,4,-1
 428.32421875 3.7138671875 l 1,5,-1
 0.4013671875 3.7138671875 l 1,0,-1
EndSplineSet
Validated: 1
EndChar

StartChar: M
Encoding: 77 77 30
Width: 652
VWidth: 1000
GlyphClass: 1
Flags: W
LayerCount: 2
Fore
SplineSet
109.381835938 2.7138671875 m 1,0,-1
 2.4013671875 2.7138671875 l 1,1,-1
 2.4013671875 644.598632812 l 1,2,-1
 109.381835938 644.598632812 l 1,3,-1
 296.59765625 216.673828125 l 1,4,-1
 483.815429688 644.598632812 l 1,5,-1
 590.795898438 644.598632812 l 1,6,-1
 590.795898438 2.7138671875 l 1,7,-1
 483.815429688 2.7138671875 l 1,8,-1
 483.815429688 430.63671875 l 1,9,-1
 296.598632812 56.2041015625 l 1,10,-1
 109.381835938 430.63671875 l 1,11,-1
 109.381835938 2.7138671875 l 1,0,-1
EndSplineSet
Validated: 1
EndChar

StartChar: N
Encoding: 78 78 31
Width: 597
VWidth: 1000
GlyphClass: 1
Flags: W
LayerCount: 2
Fore
SplineSet
107.498046875 538.198242188 m 1,0,-1
 107.498046875 2.7138671875 l 1,1,-1
 0.4013671875 2.7138671875 l 1,2,-1
 0.4013671875 645.294921875 l 1,3,-1
 268.143554688 645.294921875 l 2,4,5
 325.540877686 645.294921875 325.540877686 645.294921875 377.276471354 618.632370605 c 128,-1,6
 429.012065023 591.969819336 429.012065023 591.969819336 462.730837606 551.473891602 c 128,-1,7
 496.449610189 510.977963867 496.449610189 510.977963867 516.167676189 464.68083252 c 128,-1,8
 535.885742188 418.383701172 535.885742188 418.383701172 535.885742188 377.552734375 c 2,9,-1
 535.885742188 2.7138671875 l 1,10,-1
 428.7890625 2.7138671875 l 1,11,-1
 428.7890625 404.327148438 l 2,12,13
 430.79020364 448.573347336 430.79020364 448.573347336 391.072466514 493.385794762 c 128,-1,14
 351.354729389 538.198242188 351.354729389 538.198242188 294.91796875 538.198242188 c 2,15,-1
 107.498046875 538.198242188 l 1,0,-1
EndSplineSet
Validated: 33
EndChar

StartChar: O
Encoding: 79 79 32
Width: 547
VWidth: 1000
GlyphClass: 1
Flags: W
LayerCount: 2
Fore
SplineSet
2.0166015625 216.842773438 m 2,0,1
 2.0166015625 159.025131685 2.0166015625 159.025131685 20.1312037395 116.089419124 c 128,-1,2
 38.2458059165 73.1537065628 38.2458059165 73.1537065628 69.5211094931 49.3935368092 c 128,-1,3
 100.79641307 25.6333670556 100.79641307 25.6333670556 137.213662236 14.4529139965 c 128,-1,4
 173.630911401 3.2724609375 173.630911401 3.2724609375 215.586914062 3.2724609375 c 2,5,-1
 270.504882812 3.2724609375 l 2,6,7
 312.461231426 3.2724609375 312.461231426 3.2724609375 348.87854325 14.4529072321 c 128,-1,8
 385.295855074 25.6333535266 385.295855074 25.6333535266 416.571056969 49.3935435737 c 128,-1,9
 447.846258864 73.1537336207 447.846258864 73.1537336207 465.960727088 116.089412359 c 128,-1,10
 484.075195312 159.025091098 484.075195312 159.025091098 484.075195312 216.842773438 c 2,11,-1
 484.075195312 430.413085938 l 2,12,13
 484.075195312 488.230428295 484.075195312 488.230428295 465.960711886 531.1660394 c 128,-1,14
 447.846228459 574.101650505 447.846228459 574.101650505 416.571072171 597.861945219 c 128,-1,15
 385.295915883 621.622239933 385.295915883 621.622239933 348.878528048 632.802819186 c 128,-1,16
 312.461140213 643.983398438 312.461140213 643.983398438 270.504882812 643.983398438 c 2,17,-1
 215.586914062 643.983398438 l 2,18,19
 173.631002614 643.983398438 173.631002614 643.983398438 137.213677438 632.802812421 c 128,-1,20
 100.796352261 621.622226404 100.796352261 621.622226404 69.521094291 597.861951984 c 128,-1,21
 38.2458363207 574.101677563 38.2458363207 574.101677563 20.1312189416 531.166032636 c 128,-1,22
 2.0166015625 488.230387709 2.0166015625 488.230387709 2.0166015625 430.413085938 c 2,23,-1
 2.0166015625 216.842773438 l 2,0,1
109.819335938 430.413085938 m 2,24,25
 109.819335938 470.075927735 109.819335938 470.075927735 142.871704102 503.128295898 c 128,-1,26
 175.924072265 536.180664062 175.924072265 536.180664062 215.586914062 536.180664062 c 2,27,-1
 270.504882812 536.180664062 l 2,28,29
 310.168375651 536.180664062 310.168375651 536.180664062 343.220906576 503.128336588 c 128,-1,30
 376.2734375 470.076009114 376.2734375 470.076009114 376.2734375 430.413085938 c 2,31,-1
 376.2734375 216.842773438 l 2,32,33
 376.2734375 177.179199219 376.2734375 177.179199219 343.220947266 144.126708984 c 128,-1,34
 310.168457031 111.07421875 310.168457031 111.07421875 270.504882812 111.07421875 c 2,35,-1
 215.586914062 111.07421875 l 2,36,37
 175.923990886 111.07421875 175.923990886 111.07421875 142.871663412 144.126749674 c 128,-1,38
 109.819335938 177.179280599 109.819335938 177.179280599 109.819335938 216.842773438 c 2,39,-1
 109.819335938 430.413085938 l 2,24,25
EndSplineSet
Validated: 9
EndChar

StartChar: P
Encoding: 80 80 33
Width: 601
VWidth: 1000
GlyphClass: 1
Flags: W
LayerCount: 2
Fore
SplineSet
349.74609375 535.51953125 m 2,0,1
 428.825683593 535.51953125 428.825683593 535.51953125 428.825195312 456.440429688 c 2,2,-1
 428.825195312 403.720703125 l 2,3,4
 428.825195312 324.641113281 428.825195312 324.641113281 349.74609375 324.641601562 c 2,5,-1
 110.48046875 324.641601562 l 1,6,-1
 110.48046875 535.51953125 l 1,7,-1
 349.74609375 535.51953125 l 2,0,1
3.013671875 642.986328125 m 1,8,-1
 3.013671875 4.26953125 l 1,9,-1
 110.48046875 4.26953125 l 1,10,-1
 110.48046875 217.174804688 l 1,11,-1
 376.10546875 217.174804688 l 2,12,13
 536.291992188 217.174804688 536.291992188 217.174804688 536.291992188 377.361328125 c 2,14,-1
 536.291992188 430.080078125 l 2,15,16
 536.291992188 471.905853635 536.291992188 471.905853635 525.14625756 508.209945739 c 128,-1,17
 514.000522933 544.514037844 514.000522933 544.514037844 490.3141764 575.692001282 c 128,-1,18
 466.627829867 606.869964721 466.627829867 606.869964721 423.825670402 624.928146423 c 128,-1,19
 381.023510937 642.986328125 381.023510937 642.986328125 323.385742188 642.986328125 c 2,20,-1
 3.013671875 642.986328125 l 1,8,-1
EndSplineSet
Validated: 41
EndChar

StartChar: Q
Encoding: 81 81 34
Width: 544
VWidth: 1000
GlyphClass: 1
Flags: W
LayerCount: 2
Fore
SplineSet
375.846679688 218.209960938 m 2,0,-1
 375.846679688 432.095703125 l 2,1,2
 375.846679688 472.266601562 375.846679688 472.266601562 342.4609375 505.65234375 c 128,-1,3
 309.075195312 539.038085938 309.075195312 539.038085938 268.903320312 539.038085938 c 2,4,-1
 213.904296875 539.038085938 l 2,5,6
 173.733398438 539.038085938 173.733398438 539.038085938 140.34765625 505.65234375 c 128,-1,7
 106.961914062 472.266601562 106.961914062 472.266601562 106.961914062 432.095703125 c 2,8,-1
 106.961914062 218.209960938 l 2,9,10
 106.961914062 184.598632812 106.961914062 184.598632812 130.65234375 154.674804688 c 128,-1,11
 154.34375 124.750976562 154.34375 124.750976562 187.143554688 115.379882812 c 0,12,13
 188.442382812 115.009765625 188.442382812 115.009765625 188.442382812 116.359375 c 2,14,-1
 188.442382812 217.19140625 l 1,15,-1
 294.366210938 217.19140625 l 1,16,-1
 294.366210938 116.359375 l 2,17,18
 294.366210938 114.947265625 294.366210938 114.947265625 295.706054688 115.392578125 c 0,19,20
 328.881835938 126.451171875 328.881835938 126.451171875 352.364257812 155.698242188 c 128,-1,21
 375.846679688 184.944335938 375.846679688 184.944335938 375.846679688 218.209960938 c 2,0,-1
268.903320312 5.341796875 m 2,22,-1
 213.904296875 5.341796875 l 2,23,24
 172.022460938 5.341796875 172.022460938 5.341796875 135.723632812 16.46875 c 128,-1,25
 99.42578125 27.595703125 99.42578125 27.595703125 68.263671875 51.2685546875 c 128,-1,26
 37.1015625 74.94140625 37.1015625 74.94140625 19.0693359375 117.73828125 c 128,-1,27
 1.037109375 160.536132812 1.037109375 160.536132812 1.037109375 218.209960938 c 2,28,-1
 1.037109375 432.095703125 l 2,29,30
 1.037109375 489.76953125 1.037109375 489.76953125 19.0693359375 532.567382812 c 128,-1,31
 37.1015625 575.364257812 37.1015625 575.364257812 68.263671875 599.037109375 c 128,-1,32
 99.42578125 622.709960938 99.42578125 622.709960938 135.723632812 633.8359375 c 128,-1,33
 172.022460938 644.962890625 172.022460938 644.962890625 213.904296875 644.962890625 c 2,34,-1
 268.903320312 644.962890625 l 2,35,36
 310.786132812 644.962890625 310.786132812 644.962890625 347.083984375 633.8359375 c 128,-1,37
 383.381835938 622.709960938 383.381835938 622.709960938 414.543945312 599.037109375 c 128,-1,38
 445.70703125 575.364257812 445.70703125 575.364257812 463.739257812 532.567382812 c 128,-1,39
 481.771484375 489.76953125 481.771484375 489.76953125 481.771484375 432.095703125 c 2,40,-1
 481.771484375 218.209960938 l 2,41,42
 481.771484375 160.536132812 481.771484375 160.536132812 463.739257812 117.73828125 c 128,-1,43
 445.70703125 74.94140625 445.70703125 74.94140625 414.543945312 51.2685546875 c 128,-1,44
 383.381835938 27.595703125 383.381835938 27.595703125 347.083984375 16.46875 c 128,-1,45
 310.786132812 5.341796875 310.786132812 5.341796875 268.903320312 5.341796875 c 2,22,-1
268.903320312 3.3046875 m 2,46,47
 311.057617188 3.3046875 311.057617188 3.3046875 347.702148438 14.572265625 c 128,-1,48
 384.345703125 25.83984375 384.345703125 25.83984375 415.827148438 49.7578125 c 128,-1,49
 447.307617188 73.67578125 447.307617188 73.67578125 465.55859375 116.876953125 c 128,-1,50
 483.80859375 160.078125 483.80859375 160.078125 483.80859375 218.209960938 c 2,51,-1
 483.80859375 432.095703125 l 2,52,53
 483.80859375 490.227539062 483.80859375 490.227539062 465.55859375 533.428710938 c 128,-1,54
 447.307617188 576.629882812 447.307617188 576.629882812 415.827148438 600.547851562 c 128,-1,55
 384.345703125 624.465820312 384.345703125 624.465820312 347.702148438 635.732421875 c 128,-1,56
 311.057617188 647 311.057617188 647 268.903320312 647 c 2,57,-1
 213.904296875 647 l 2,58,59
 171.750976562 647 171.750976562 647 135.106445312 635.732421875 c 128,-1,60
 98.4619140625 624.465820312 98.4619140625 624.465820312 66.9814453125 600.547851562 c 128,-1,61
 35.5009765625 576.629882812 35.5009765625 576.629882812 17.25 533.428710938 c 128,-1,62
 -1 490.227539062 -1 490.227539062 -1 432.095703125 c 2,63,-1
 -1 218.209960938 l 2,64,65
 -1 160.078125 -1 160.078125 17.25 116.876953125 c 128,-1,66
 35.5009765625 73.67578125 35.5009765625 73.67578125 66.9814453125 49.7578125 c 128,-1,67
 98.4619140625 25.83984375 98.4619140625 25.83984375 135.106445312 14.572265625 c 128,-1,68
 171.750976562 3.3046875 171.750976562 3.3046875 213.904296875 3.3046875 c 2,69,-1
 268.903320312 3.3046875 l 2,46,47
108.999023438 218.209960938 m 2,70,-1
 108.999023438 432.095703125 l 2,71,72
 108.999023438 471.3671875 108.999023438 471.3671875 141.815429688 504.184570312 c 128,-1,73
 174.6328125 537.000976562 174.6328125 537.000976562 213.904296875 537.000976562 c 2,74,-1
 268.903320312 537.000976562 l 2,75,76
 308.17578125 537.000976562 308.17578125 537.000976562 340.9921875 504.184570312 c 128,-1,77
 373.809570312 471.3671875 373.809570312 471.3671875 373.809570312 432.095703125 c 2,78,-1
 373.809570312 218.209960938 l 2,79,80
 373.809570312 186.057617188 373.809570312 186.057617188 351.181640625 157.521484375 c 128,-1,81
 328.553710938 128.985351562 328.553710938 128.985351562 296.403320312 117.783203125 c 1,82,-1
 296.403320312 218.209960938 l 2,83,84
 296.403320312 219.228515625 296.403320312 219.228515625 295.384765625 219.228515625 c 2,85,-1
 187.423828125 219.228515625 l 2,86,87
 186.405273438 219.228515625 186.405273438 219.228515625 186.405273438 218.209960938 c 2,88,-1
 186.405273438 117.720703125 l 1,89,90
 154.671875 127.30859375 154.671875 127.30859375 131.8359375 156.5078125 c 128,-1,91
 108.999023438 185.70703125 108.999023438 185.70703125 108.999023438 218.209960938 c 2,70,-1
268.903320312 4.3232421875 m 2,92,-1
 213.904296875 4.3232421875 l 2,93,94
 171.88671875 4.3232421875 171.88671875 4.3232421875 135.415039062 15.5205078125 c 128,-1,95
 98.9443359375 26.7177734375 98.9443359375 26.7177734375 67.623046875 50.5126953125 c 128,-1,96
 36.3017578125 74.30859375 36.3017578125 74.30859375 18.16015625 117.307617188 c 128,-1,97
 0.0185546875 160.306640625 0.0185546875 160.306640625 0.0185546875 218.209960938 c 2,98,-1
 0.0185546875 432.095703125 l 2,99,100
 0.0185546875 489.999023438 0.0185546875 489.999023438 18.16015625 532.998046875 c 128,-1,101
 36.30078125 575.997070312 36.30078125 575.997070312 67.623046875 599.791992188 c 128,-1,102
 98.9443359375 623.587890625 98.9443359375 623.587890625 135.415039062 634.784179688 c 128,-1,103
 171.88671875 645.981445312 171.88671875 645.981445312 213.904296875 645.981445312 c 2,104,-1
 268.903320312 645.981445312 l 2,105,106
 310.921875 645.981445312 310.921875 645.981445312 347.392578125 634.784179688 c 128,-1,107
 383.864257812 623.587890625 383.864257812 623.587890625 415.185546875 599.791992188 c 128,-1,108
 446.506835938 575.997070312 446.506835938 575.997070312 464.6484375 532.998046875 c 128,-1,109
 482.790039062 489.999023438 482.790039062 489.999023438 482.790039062 432.095703125 c 2,110,-1
 482.790039062 218.209960938 l 2,111,112
 482.790039062 160.306640625 482.790039062 160.306640625 464.6484375 117.307617188 c 128,-1,113
 446.506835938 74.30859375 446.506835938 74.30859375 415.185546875 50.5126953125 c 128,-1,114
 383.864257812 26.7177734375 383.864257812 26.7177734375 347.392578125 15.5205078125 c 128,-1,115
 310.921875 4.3232421875 310.921875 4.3232421875 268.903320312 4.3232421875 c 2,92,-1
295.384765625 116.359375 m 1,116,117
 328.260742188 127.317382812 328.260742188 127.317382812 351.544921875 156.3203125 c 128,-1,118
 374.828125 185.322265625 374.828125 185.322265625 374.828125 218.209960938 c 2,119,-1
 374.828125 432.095703125 l 2,120,121
 374.828125 471.817382812 374.828125 471.817382812 341.7265625 504.91796875 c 128,-1,122
 308.625 538.01953125 308.625 538.01953125 268.903320312 538.01953125 c 2,123,-1
 213.904296875 538.01953125 l 2,124,125
 174.182617188 538.01953125 174.182617188 538.01953125 141.08203125 504.91796875 c 128,-1,126
 107.98046875 471.817382812 107.98046875 471.817382812 107.98046875 432.095703125 c 2,127,-1
 107.98046875 218.209960938 l 2,128,129
 107.98046875 184.974609375 107.98046875 184.974609375 131.46875 155.3046875 c 128,-1,130
 154.95703125 125.635742188 154.95703125 125.635742188 187.423828125 116.359375 c 1,131,-1
 187.423828125 218.209960938 l 1,132,-1
 295.384765625 218.209960938 l 1,133,-1
 295.384765625 116.359375 l 1,116,117
EndSplineSet
EndChar

StartChar: R
Encoding: 82 82 35
Width: 600
VWidth: 1000
GlyphClass: 1
Flags: W
LayerCount: 2
Fore
SplineSet
2.65234375 644.34765625 m 1,0,-1
 2.65234375 3.6376953125 l 1,1,-1
 110.454101562 3.6376953125 l 1,2,-1
 110.454101562 270.091796875 l 1,3,-1
 350.465820312 270.091796875 l 2,4,5
 429.792968751 270.091796875 429.792968751 270.091796875 429.791992188 190.765625 c 2,6,-1
 429.791992188 3.6376953125 l 1,7,-1
 537.594726562 3.6376953125 l 1,8,-1
 537.594726562 217.208007812 l 2,9,10
 537.594726562 235.304654736 537.594726562 235.304654736 527.277116296 251.28323489 c 128,-1,11
 516.95950603 267.261815043 516.95950603 267.261815043 503.958464147 277.141234105 c 128,-1,12
 490.957422264 287.020653166 490.957422264 287.020653166 476.490342615 300.226167019 c 128,-1,13
 462.023262965 313.431680871 462.023262965 313.431680871 456.234375 325.009765625 c 1,14,15
 482.421858567 325.009765625 482.421858567 325.009765625 510.008292565 346.744464913 c 128,-1,16
 537.594726562 368.479164201 537.594726562 368.479164201 537.594726562 404.3359375 c 2,17,-1
 537.594726562 483.662109375 l 2,18,19
 537.594726562 505.772533707 537.594726562 505.772533707 526.215265596 531.459408491 c 128,-1,20
 514.83580463 557.146283274 514.83580463 557.146283274 491.672155058 583.456469805 c 128,-1,21
 468.508505486 609.766656337 468.508505486 609.766656337 424.578485811 627.057156293 c 128,-1,22
 380.648466136 644.34765625 380.648466136 644.34765625 324.024414062 644.34765625 c 2,23,-1
 2.65234375 644.34765625 l 1,0,-1
350.465820312 536.545898438 m 2,24,25
 390.129335937 536.545898438 390.129335937 536.545898438 408.9440625 517.731352539 c 128,-1,26
 427.758789062 498.91680664 427.758789062 498.91680664 427.758789062 459.25390625 c 0,27,28
 427.758789062 377.893554688 427.758789062 377.893554688 350.465820312 377.893554688 c 2,29,-1
 110.454101562 377.893554688 l 1,30,-1
 110.454101562 536.545898438 l 1,31,-1
 350.465820312 536.545898438 l 2,24,25
EndSplineSet
Validated: 41
EndChar

StartChar: S
Encoding: 83 83 36
Width: 599
VWidth: 1000
GlyphClass: 1
Flags: W
LayerCount: 2
Fore
SplineSet
376.401367188 3.7138671875 m 2,0,1
 414.204930413 3.7138671875 414.204930413 3.7138671875 446.222117919 21.0562672615 c 128,-1,2
 478.239305425 38.3986673355 478.239305425 38.3986673355 497.140995485 64.0989603996 c 128,-1,3
 516.042685545 89.7992534636 516.042685545 89.7992534636 526.45786621 116.335472584 c 128,-1,4
 536.873046875 142.871691703 536.873046875 142.871691703 536.873046875 164.184570312 c 2,5,-1
 536.873046875 217.673828125 l 2,6,7
 536.873046875 378.147460938 536.873046875 378.147460938 376.401367188 378.146484375 c 2,8,-1
 189.184570312 378.146484375 l 2,9,10
 108.949218751 378.146484375 108.949218751 378.146484375 108.94921875 458.381835938 c 128,-1,11
 108.94921875 538.618652344 108.94921875 538.618652344 189.184570312 538.618164062 c 2,12,-1
 536.873046875 538.618164062 l 1,13,14
 528.514473013 546.976280134 528.514473013 546.976280134 512.163317153 569.54189935 c 128,-1,15
 495.812161293 592.107518566 495.812161293 592.107518566 483.018079331 606.316270205 c 128,-1,16
 470.22399737 620.525021844 470.22399737 620.525021844 441.957262466 633.061827328 c 128,-1,17
 413.690527561 645.598632812 413.690527561 645.598632812 376.401367188 645.598632812 c 2,18,-1
 162.439453125 645.598632812 l 2,19,20
 124.636258639 645.598632812 124.636258639 645.598632812 92.6192673903 628.256095886 c 128,-1,21
 60.6022761418 610.913558959 60.6022761418 610.913558959 41.7006788987 585.213172912 c 128,-1,22
 22.7990816557 559.512786865 22.7990816557 559.512786865 12.3839158278 532.976615906 c 128,-1,23
 1.96875 506.440444946 1.96875 506.440444946 1.96875 485.127929688 c 2,24,-1
 1.96875 431.63671875 l 2,25,26
 1.96875 271.166015625 1.96875 271.166015625 162.439453125 271.165039062 c 2,27,-1
 349.65625 271.165039062 l 2,28,29
 429.640625 271.165039062 429.640625 271.165039062 429.640625 190.803710938 c 0,30,31
 429.640625 110.693359375 429.640625 110.693359375 349.65625 110.693359375 c 2,32,-1
 1.96875 110.693359375 l 1,33,34
 10.3262023909 102.335906984 10.3262023909 102.335906984 26.6775651737 79.7698872887 c 128,-1,35
 43.0289279566 57.2038675933 43.0289279566 57.2038675933 55.8229383663 42.9956308998 c 128,-1,36
 68.616948776 28.7873942063 68.616948776 28.7873942063 96.8837724491 16.2506306969 c 128,-1,37
 125.150596122 3.7138671875 125.150596122 3.7138671875 162.439453125 3.7138671875 c 2,38,-1
 376.401367188 3.7138671875 l 2,0,1
EndSplineSet
Validated: 41
EndChar

StartChar: T
Encoding: 84 84 37
Width: 599
VWidth: 1000
GlyphClass: 1
Flags: W
LayerCount: 2
Fore
SplineSet
322.34375 3.7138671875 m 1,0,-1
 215.36328125 3.7138671875 l 1,1,-1
 215.36328125 538.618164062 l 1,2,-1
 1.4013671875 538.618164062 l 1,3,-1
 1.4013671875 645.598632812 l 1,4,-1
 536.305664062 645.598632812 l 1,5,-1
 536.305664062 538.618164062 l 1,6,-1
 322.34375 538.618164062 l 1,7,-1
 322.34375 3.7138671875 l 1,0,-1
EndSplineSet
Validated: 1
EndChar

StartChar: U
Encoding: 85 85 38
Width: 545
VWidth: 1000
GlyphClass: 1
Flags: W
LayerCount: 2
Fore
SplineSet
108.381835938 644.598632812 m 1,0,-1
 1.4013671875 644.598632812 l 1,1,-1
 1.4013671875 216.673828125 l 2,2,3
 1.4013671875 158.885599565 1.4013671875 158.885599565 19.4171943195 115.942404818 c 128,-1,4
 37.4330214514 72.9992100721 37.4330214514 72.9992100721 68.6357384201 49.1197137119 c 128,-1,5
 99.8384553887 25.2402173516 99.8384553887 25.2402173516 136.427478743 13.9770422696 c 128,-1,6
 173.016502098 2.7138671875 173.016502098 2.7138671875 215.36328125 2.7138671875 c 2,7,-1
 268.853515625 2.7138671875 l 2,8,9
 311.199948911 2.7138671875 311.199948911 2.7138671875 347.788909535 13.9770491204 c 128,-1,10
 384.37787016 25.2402310533 384.37787016 25.2402310533 415.580688854 49.1197068611 c 128,-1,11
 446.783507548 72.9991826688 446.783507548 72.9991826688 464.799468618 115.942411669 c 128,-1,12
 482.815429688 158.88564067 482.815429688 158.88564067 482.815429688 216.673828125 c 2,13,-1
 482.815429688 644.598632812 l 1,14,-1
 375.833984375 644.598632812 l 1,15,-1
 375.833984375 216.673828125 l 2,16,17
 375.833984375 176.556722005 375.833984375 176.556722005 342.402506511 143.12504069 c 128,-1,18
 308.971028647 109.693359375 308.971028647 109.693359375 268.853515625 109.693359375 c 2,19,-1
 215.36328125 109.693359375 l 2,20,21
 175.245117187 109.693359375 175.245117187 109.693359375 141.813476563 143.125 c 128,-1,22
 108.381835938 176.556640625 108.381835938 176.556640625 108.381835938 216.673828125 c 2,23,-1
 108.381835938 644.598632812 l 1,0,-1
EndSplineSet
Validated: 9
EndChar

StartChar: V
Encoding: 86 86 39
Width: 544
VWidth: 1000
GlyphClass: 1
Flags: W
LayerCount: 2
Fore
SplineSet
2.4013671875 592.108398438 m 1,0,-1
 189.618164062 3.7138671875 l 1,1,-1
 296.598632812 3.7138671875 l 1,2,-1
 483.815429688 592.108398438 l 1,3,-1
 483.815429688 645.598632812 l 1,4,-1
 376.833984375 645.598632812 l 1,5,-1
 376.833984375 592.108398438 l 1,6,-1
 243.10546875 110.693359375 l 1,7,-1
 109.381835938 592.108398438 l 1,8,-1
 109.381835938 645.598632812 l 1,9,-1
 2.4013671875 645.598632812 l 1,10,-1
 2.4013671875 592.108398438 l 1,0,-1
EndSplineSet
Validated: 9
EndChar

StartChar: W
Encoding: 87 87 40
Width: 763
VWidth: 1000
GlyphClass: 1
Flags: W
LayerCount: 2
Fore
SplineSet
364.537109375 214.55078125 m 2,0,1
 364.251953125 215.188476562 364.251953125 215.188476562 363.55078125 215.149414062 c 128,-1,2
 362.849609375 215.110351562 362.849609375 215.110351562 362.63671875 214.446289062 c 2,3,-1
 295.641601562 5.341796875 l 1,4,-1
 189.168945312 5.341796875 l 1,5,-1
 2.037109375 593.178710938 l 1,6,-1
 2.037109375 644.962890625 l 1,7,-1
 107.962890625 644.962890625 l 1,8,9
 107.962890625 592.881835938 107.962890625 592.881835938 107.999023438 592.749023438 c 2,10,-1
 240.404296875 112.014648438 l 2,11,12
 240.607421875 111.274414062 240.607421875 111.274414062 241.384765625 111.2734375 c 128,-1,13
 242.161132812 111.271484375 242.161132812 111.271484375 242.3671875 112.010742188 c 0,14,15
 376.846679688 592.87890625 376.846679688 592.87890625 376.846679688 593.01953125 c 2,16,-1
 376.846679688 644.962890625 l 1,17,-1
 482.772460938 644.962890625 l 1,18,-1
 482.772460938 593.177734375 l 1,19,20
 393.075195312 309.817382812 393.075195312 309.817382812 393.227539062 309.467773438 c 2,21,-1
 464.5234375 146.506835938 l 2,22,23
 464.810546875 145.8515625 464.810546875 145.8515625 465.529296875 145.90234375 c 128,-1,24
 466.247070312 145.954101562 466.247070312 145.954101562 466.438476562 146.640625 c 0,25,26
 590.732421875 592.879882812 590.732421875 592.879882812 590.732421875 593.01953125 c 2,27,-1
 590.732421875 644.962890625 l 1,28,-1
 696.658203125 644.962890625 l 1,29,-1
 696.658203125 593.178710938 l 1,30,-1
 509.526367188 5.341796875 l 1,31,-1
 457.969726562 5.341796875 l 1,32,-1
 364.537109375 214.55078125 l 2,0,1
109.999023438 645.981445312 m 2,33,34
 109.999023438 647 109.999023438 647 108.98046875 647 c 2,35,-1
 1.0185546875 647 l 2,36,37
 0.0009765625 647 0.0009765625 647 0.0009765625 645.981445312 c 0,38,39
 0.0009765625 592.861328125 0.0009765625 592.861328125 0.0478515625 592.7109375 c 2,40,-1
 187.453125 4.0146484375 l 2,41,42
 187.680664062 3.3046875 187.680664062 3.3046875 188.423828125 3.3046875 c 2,43,-1
 296.384765625 3.3046875 l 2,44,45
 297.127929688 3.3046875 297.127929688 3.3046875 297.35546875 4.0126953125 c 2,46,-1
 363.763671875 211.287109375 l 1,47,-1
 456.37890625 3.9091796875 l 2,48,49
 456.647460938 3.3046875 456.647460938 3.3046875 457.30859375 3.3046875 c 2,50,-1
 510.270507812 3.3046875 l 2,51,52
 511.014648438 3.3046875 511.014648438 3.3046875 511.2421875 4.0146484375 c 0,53,54
 698.694335938 592.861328125 698.694335938 592.861328125 698.694335938 593.01953125 c 2,55,-1
 698.694335938 645.981445312 l 2,56,57
 698.694335938 647 698.694335938 647 697.67578125 647 c 2,58,-1
 589.713867188 647 l 2,59,60
 588.696289062 647 588.696289062 647 588.696289062 645.981445312 c 2,61,-1
 588.696289062 593.16015625 l 1,62,-1
 465.244140625 149.944335938 l 1,63,-1
 395.248046875 309.932617188 l 1,64,65
 484.80859375 592.862304688 484.80859375 592.862304688 484.80859375 593.01953125 c 2,66,-1
 484.80859375 645.981445312 l 2,67,68
 484.80859375 647 484.80859375 647 483.790039062 647 c 2,69,-1
 375.828125 647 l 2,70,71
 374.810546875 647 374.810546875 647 374.810546875 645.981445312 c 2,72,-1
 374.810546875 593.16015625 l 1,73,-1
 241.393554688 116.094726562 l 1,74,-1
 109.999023438 593.158203125 l 1,75,-1
 109.999023438 645.981445312 l 2,33,34
363.606445312 214.135742188 m 1,76,-1
 296.384765625 4.3232421875 l 1,77,-1
 188.423828125 4.3232421875 l 1,78,-1
 1.0185546875 593.01953125 l 1,79,-1
 1.0185546875 645.981445312 l 1,80,-1
 108.98046875 645.981445312 l 1,81,-1
 108.98046875 593.01953125 l 1,82,-1
 241.385742188 112.28515625 l 1,83,-1
 375.828125 593.01953125 l 1,84,-1
 375.828125 645.981445312 l 1,85,-1
 483.790039062 645.981445312 l 1,86,-1
 483.790039062 593.01953125 l 1,87,-1
 394.161132812 309.875 l 1,88,-1
 465.45703125 146.9140625 l 1,89,-1
 589.713867188 593.01953125 l 1,90,-1
 589.713867188 645.981445312 l 1,91,-1
 697.67578125 645.981445312 l 1,92,-1
 697.67578125 593.01953125 l 1,93,-1
 510.270507812 4.3232421875 l 1,94,-1
 457.30859375 4.3232421875 l 1,95,-1
 363.606445312 214.135742188 l 1,76,-1
EndSplineSet
EndChar

StartChar: X
Encoding: 88 88 41
Width: 544
VWidth: 1000
GlyphClass: 1
Flags: W
LayerCount: 2
Fore
SplineSet
107.381835938 110.693359375 m 1,0,-1
 107.381835938 3.7138671875 l 1,1,-1
 0.4013671875 3.7138671875 l 1,2,-1
 0.4013671875 110.693359375 l 1,3,-1
 214.36328125 351.401367188 l 1,4,-1
 0.4013671875 592.108398438 l 1,5,-1
 0.4013671875 645.598632812 l 1,6,-1
 107.381835938 645.598632812 l 1,7,-1
 107.381835938 592.108398438 l 1,8,-1
 241.108398438 431.63671875 l 1,9,-1
 374.833984375 592.108398438 l 1,10,-1
 374.833984375 645.598632812 l 1,11,-1
 481.815429688 645.598632812 l 1,12,-1
 481.815429688 592.108398438 l 1,13,-1
 267.853515625 351.401367188 l 1,14,-1
 481.815429688 110.693359375 l 1,15,-1
 481.815429688 3.7138671875 l 1,16,-1
 374.833984375 3.7138671875 l 1,17,-1
 374.833984375 110.693359375 l 1,18,-1
 241.108398438 271.165039062 l 1,19,-1
 107.381835938 110.693359375 l 1,0,-1
EndSplineSet
Validated: 1
EndChar

StartChar: Y
Encoding: 89 89 42
Width: 596
VWidth: 1000
GlyphClass: 1
Flags: W
LayerCount: 2
Fore
SplineSet
321.34375 2.7138671875 m 1,0,-1
 214.36328125 2.7138671875 l 1,1,-1
 214.36328125 270.165039062 l 1,2,3
 172.016524703 270.165039062 172.016524703 270.165039062 135.427482511 281.428401609 c 128,-1,4
 98.8384403187 292.691764156 98.8384403187 292.691764156 67.6357346525 316.571613649 c 128,-1,5
 36.4330289864 340.451463141 36.4330289864 340.451463141 18.417198087 383.395229002 c 128,-1,6
 0.4013671875 426.338994863 0.4013671875 426.338994863 0.4013671875 484.127929688 c 2,7,-1
 0.4013671875 644.598632812 l 1,8,-1
 107.381835938 644.598632812 l 1,9,-1
 107.381835938 484.127929688 l 2,10,11
 107.381835938 444.009521484 107.381835938 444.009521484 140.813354492 410.57800293 c 128,-1,12
 174.244873047 377.146484375 174.244873047 377.146484375 214.36328125 377.146484375 c 2,13,-1
 321.34375 377.146484375 l 2,14,15
 361.461507161 377.146484375 361.461507161 377.146484375 394.892862956 410.57804362 c 128,-1,16
 428.32421875 444.009602865 428.32421875 444.009602865 428.32421875 484.127929688 c 2,17,-1
 428.32421875 644.598632812 l 1,18,-1
 535.305664062 644.598632812 l 1,19,-1
 535.305664062 484.127929688 l 2,20,21
 535.305664062 426.339035969 535.305664062 426.339035969 517.289699224 383.395235853 c 128,-1,22
 499.273734387 340.451435738 499.273734387 340.451435738 468.070926996 316.571606798 c 128,-1,23
 436.868119604 292.691777858 436.868119604 292.691777858 400.279140143 281.42840846 c 128,-1,24
 363.690160681 270.165039062 363.690160681 270.165039062 321.34375 270.165039062 c 1,25,-1
 321.34375 2.7138671875 l 1,0,-1
EndSplineSet
Validated: 1
EndChar

StartChar: Z
Encoding: 90 90 43
Width: 599
VWidth: 1000
GlyphClass: 1
Flags: W
LayerCount: 2
Fore
SplineSet
537.305664062 109.693359375 m 1,0,-1
 537.305664062 2.7138671875 l 1,1,-1
 2.4013671875 2.7138671875 l 1,2,-1
 2.4013671875 136.438476562 l 1,3,-1
 403.579101562 537.618164062 l 1,4,-1
 2.4013671875 537.618164062 l 1,5,-1
 2.4013671875 644.598632812 l 1,6,-1
 537.305664062 644.598632812 l 1,7,-1
 537.305664062 564.36328125 l 1,8,-1
 82.6357421875 109.693359375 l 1,9,-1
 537.305664062 109.693359375 l 1,0,-1
EndSplineSet
Validated: 1
EndChar

StartChar: a
Encoding: 97 97 44
Width: 434
VWidth: 1000
GlyphClass: 1
Flags: W
LayerCount: 2
Fore
SplineSet
133.489257812 267.029296875 m 1,0,-1
 167.611328125 371.40234375 l 1,1,-1
 203.740234375 371.40234375 l 1,2,-1
 237.862304688 267.029296875 l 1,3,-1
 133.489257812 267.029296875 l 1,0,-1
247.8984375 162.65625 m 1,4,-1
 263.956054688 110.469726562 l 1,5,-1
 263.956054688 4.08984375 l 1,6,-1
 370.3359375 4.08984375 l 1,7,-1
 370.3359375 82.369140625 l 1,8,-1
 237.862304688 477.783203125 l 1,9,-1
 133.489257812 477.783203125 l 1,10,-1
 1.0166015625 82.369140625 l 1,11,-1
 1.0166015625 4.08984375 l 1,12,-1
 107.396484375 4.08984375 l 1,13,-1
 107.396484375 110.469726562 l 1,14,-1
 123.454101562 162.65625 l 1,15,-1
 247.8984375 162.65625 l 1,4,-1
EndSplineSet
Validated: 9
EndChar

StartChar: b
Encoding: 98 98 45
Width: 435
VWidth: 1000
GlyphClass: 1
Flags: W
LayerCount: 2
Fore
SplineSet
109.239257812 111.180664062 m 1,0,-1
 213.471679688 111.180664062 l 2,1,2
 233.014973957 111.180664062 233.014973957 111.180664062 249.30094401 127.466837565 c 128,-1,3
 265.586914062 143.753011068 265.586914062 143.753011068 265.586914062 163.296875 c 128,-1,4
 265.586914062 182.840169271 265.586914062 182.840169271 249.300862631 199.126627605 c 128,-1,5
 233.0148112 215.413085938 233.0148112 215.413085938 213.471679688 215.413085938 c 2,6,-1
 109.239257812 215.413085938 l 1,7,-1
 109.239257812 111.180664062 l 1,0,-1
3.001953125 477.998046875 m 1,8,-1
 161.35546875 477.998046875 l 2,9,10
 217.661830955 477.998046875 217.661830955 477.998046875 260.533548364 465.213754859 c 128,-1,11
 303.405265772 452.429462843 303.405265772 452.429462843 326.484685889 431.869481835 c 128,-1,12
 349.564106005 411.309500827 349.564106005 411.309500827 360.694162378 389.482279029 c 128,-1,13
 371.82421875 367.655057231 371.82421875 367.655057231 371.82421875 345.703125 c 0,14,15
 371.82421875 308.677461677 371.82421875 308.677461677 340.566909203 288.102890995 c 128,-1,16
 309.309599657 267.528320312 309.309599657 267.528320312 265.586914062 267.528320312 c 1,17,18
 317.785250208 242.099147498 317.785250208 242.099147498 344.804734479 202.578316073 c 128,-1,19
 371.82421875 163.057484648 371.82421875 163.057484648 371.82421875 137.23828125 c 0,20,21
 371.82421875 123.608046875 371.82421875 123.608046875 370.826997387 112.840074219 c 128,-1,22
 369.829776024 102.072101562 369.829776024 102.072101562 361.4200573 80.046988281 c 128,-1,23
 353.010338576 58.0218749998 353.010338576 58.0218749998 337.889669262 43.3731679686 c 128,-1,24
 322.768999948 28.7244609374 322.768999948 28.7244609374 290.478119801 16.8339101562 c 128,-1,25
 258.187239653 4.943359375 258.187239653 4.943359375 213.471679688 4.943359375 c 2,26,-1
 3.001953125 4.943359375 l 1,27,-1
 3.001953125 477.998046875 l 1,8,-1
109.239257812 371.760742188 m 1,28,-1
 109.239257812 319.64453125 l 1,29,-1
 213.471679688 319.64453125 l 2,30,31
 234.93066323 319.64453125 234.93066323 319.64453125 250.258788646 326.326375326 c 128,-1,32
 265.586914062 333.008219401 265.586914062 333.008219401 265.586914062 345.703125 c 0,33,34
 265.586914062 371.760742188 265.586914062 371.760742188 213.471679688 371.760742188 c 2,35,-1
 109.239257812 371.760742188 l 1,28,-1
EndSplineSet
Validated: 1
EndChar

StartChar: c
Encoding: 99 99 46
Width: 435
VWidth: 1000
GlyphClass: 1
Flags: W
LayerCount: 2
Fore
SplineSet
370.29296875 373.205078125 m 1,0,-1
 159.494140625 373.205078125 l 2,1,2
 139.731933594 373.205078125 139.731933594 373.205078125 123.263427734 356.736572266 c 128,-1,3
 106.794921875 340.268066406 106.794921875 340.268066406 106.794921875 320.505859375 c 2,4,-1
 106.794921875 162.40625 l 2,5,6
 106.794921875 142.644042969 106.794921875 142.644042969 123.263427734 126.175537109 c 128,-1,7
 139.731933594 109.70703125 139.731933594 109.70703125 159.494140625 109.70703125 c 2,8,-1
 370.29296875 109.70703125 l 1,9,10
 362.058799744 101.472862244 362.058799744 101.472862244 345.94898008 79.2401568096 c 128,-1,11
 329.839160415 57.0074513749 329.839160415 57.0074513749 317.234201683 43.009080251 c 128,-1,12
 304.629242952 29.010709127 304.629242952 29.010709127 276.780187355 16.6591631573 c 128,-1,13
 248.931131758 4.3076171875 248.931131758 4.3076171875 212.193359375 4.3076171875 c 2,14,-1
 159.494140625 4.3076171875 l 2,15,16
 1.39501953125 4.3076171875 1.39501953125 4.3076171875 1.3955078125 162.40625 c 2,17,-1
 1.3955078125 320.505859375 l 2,18,19
 1.3955078125 478.604980469 1.3955078125 478.604980469 159.494140625 478.604492188 c 2,20,-1
 212.193359375 478.604492188 l 2,21,22
 248.931131758 478.604492188 248.931131758 478.604492188 276.780187355 466.252946218 c 128,-1,23
 304.629242952 453.901400248 304.629242952 453.901400248 317.234201683 439.903029124 c 128,-1,24
 329.839160415 425.904658 329.839160415 425.904658 345.94898008 403.671952565 c 128,-1,25
 362.058799744 381.439247131 362.058799744 381.439247131 370.29296875 373.205078125 c 1,0,-1
EndSplineSet
Validated: 33
EndChar

StartChar: d
Encoding: 100 100 47
Width: 434
VWidth: 1000
GlyphClass: 1
Flags: W
LayerCount: 2
Fore
SplineSet
109.239257812 111.180664062 m 1,0,-1
 213.471679688 111.180664062 l 2,1,2
 233.014973957 111.180664062 233.014973957 111.180664062 249.30094401 127.466837565 c 128,-1,3
 265.586914062 143.753011068 265.586914062 143.753011068 265.586914062 163.296875 c 2,4,-1
 265.586914062 319.64453125 l 2,5,6
 265.586914062 339.188395182 265.586914062 339.188395182 249.30094401 355.474568685 c 128,-1,7
 233.014973957 371.760742188 233.014973957 371.760742188 213.471679688 371.760742188 c 2,8,-1
 109.239257812 371.760742188 l 1,9,-1
 109.239257812 111.180664062 l 1,0,-1
3.001953125 477.998046875 m 1,10,-1
 161.35546875 477.998046875 l 2,11,12
 218.333324774 477.998046875 218.333324774 477.998046875 260.645464 460.146473416 c 128,-1,13
 302.957603226 442.294899957 302.957603226 442.294899957 326.372770252 411.473704807 c 128,-1,14
 349.787937278 380.652509657 349.787937278 380.652509657 360.806078014 344.763905057 c 128,-1,15
 371.82421875 308.875300456 371.82421875 308.875300456 371.82421875 267.528320312 c 2,16,-1
 371.82421875 163.296875 l 2,17,18
 371.82421875 4.943359375 371.82421875 4.943359375 213.471679688 4.943359375 c 2,19,-1
 3.001953125 4.943359375 l 1,20,-1
 3.001953125 477.998046875 l 1,10,-1
EndSplineSet
Validated: 1
EndChar

StartChar: e
Encoding: 101 101 48
Width: 380
VWidth: 1000
GlyphClass: 1
Flags: W
LayerCount: 2
Fore
SplineSet
106.697265625 108.588867188 m 2,0,1
 106.697265625 107.58203125 106.697265625 107.58203125 107.703125 107.58203125 c 2,2,-1
 318.077148438 107.58203125 l 1,3,-1
 318.077148438 2.8994140625 l 1,4,-1
 2.013671875 2.8994140625 l 1,5,-1
 2.013671875 475.986328125 l 1,6,-1
 318.077148438 475.986328125 l 1,7,-1
 318.077148438 371.303710938 l 1,8,-1
 107.703125 371.303710938 l 2,9,10
 106.697265625 371.303710938 106.697265625 371.303710938 106.697265625 370.296875 c 2,11,-1
 106.697265625 317.955078125 l 2,12,13
 106.697265625 316.948242188 106.697265625 316.948242188 107.703125 316.948242188 c 2,14,-1
 318.077148438 316.948242188 l 1,15,-1
 318.077148438 214.278320312 l 1,16,-1
 107.703125 214.278320312 l 2,17,18
 106.697265625 214.278320312 106.697265625 214.278320312 106.697265625 213.271484375 c 2,19,-1
 106.697265625 108.588867188 l 2,0,1
108.709960938 369.290039062 m 1,20,-1
 319.083007812 369.290039062 l 2,21,22
 320.08984375 369.290039062 320.08984375 369.290039062 320.08984375 370.296875 c 2,23,-1
 320.08984375 476.993164062 l 2,24,25
 320.08984375 478 320.08984375 478 319.083007812 478 c 2,26,-1
 1.0068359375 478 l 2,27,28
 0.0009765625 478 0.0009765625 478 0.0009765625 476.993164062 c 2,29,-1
 0.0009765625 1.892578125 l 2,30,31
 0.0009765625 0.8857421875 0.0009765625 0.8857421875 1.0068359375 0.8857421875 c 2,32,-1
 319.083007812 0.8857421875 l 2,33,34
 320.08984375 0.8857421875 320.08984375 0.8857421875 320.08984375 1.892578125 c 2,35,-1
 320.08984375 108.588867188 l 2,36,37
 320.08984375 109.595703125 320.08984375 109.595703125 319.083007812 109.595703125 c 2,38,-1
 108.709960938 109.595703125 l 1,39,-1
 108.709960938 212.264648438 l 1,40,-1
 319.083007812 212.264648438 l 2,41,42
 320.08984375 212.264648438 320.08984375 212.264648438 320.08984375 213.271484375 c 2,43,-1
 320.08984375 317.955078125 l 2,44,45
 320.08984375 318.961914062 320.08984375 318.961914062 319.083007812 318.961914062 c 2,46,-1
 108.709960938 318.961914062 l 1,47,-1
 108.709960938 369.290039062 l 1,20,-1
107.703125 108.588867188 m 1,48,-1
 319.083007812 108.588867188 l 1,49,-1
 319.083007812 1.892578125 l 1,50,-1
 1.0068359375 1.892578125 l 1,51,-1
 1.0068359375 476.993164062 l 1,52,-1
 319.083007812 476.993164062 l 1,53,-1
 319.083007812 370.296875 l 1,54,-1
 107.703125 370.296875 l 1,55,-1
 107.703125 317.955078125 l 1,56,-1
 319.083007812 317.955078125 l 1,57,-1
 319.083007812 213.271484375 l 1,58,-1
 107.703125 213.271484375 l 1,59,-1
 107.703125 108.588867188 l 1,48,-1
EndSplineSet
EndChar

StartChar: f
Encoding: 102 102 49
Width: 328
VWidth: 1000
GlyphClass: 1
Flags: W
LayerCount: 2
Fore
SplineSet
105.689453125 214.27734375 m 2,0,1
 104.682617188 214.27734375 104.682617188 214.27734375 104.682617188 213.271484375 c 2,2,-1
 104.682617188 2.8984375 l 1,3,-1
 2.0126953125 2.8984375 l 1,4,-1
 2.0126953125 475.986328125 l 1,5,-1
 263.721679688 475.986328125 l 1,6,-1
 263.721679688 371.302734375 l 1,7,-1
 105.689453125 371.302734375 l 2,8,9
 104.682617188 371.302734375 104.682617188 371.302734375 104.682617188 370.296875 c 2,10,-1
 104.682617188 317.955078125 l 2,11,12
 104.682617188 316.948242188 104.682617188 316.948242188 105.689453125 316.948242188 c 2,13,-1
 263.721679688 316.948242188 l 1,14,-1
 263.721679688 214.27734375 l 1,15,-1
 105.689453125 214.27734375 l 2,0,1
106.6953125 369.290039062 m 1,16,-1
 264.728515625 369.290039062 l 2,17,18
 265.734375 369.290039062 265.734375 369.290039062 265.734375 370.296875 c 2,19,-1
 265.734375 476.993164062 l 2,20,21
 265.734375 477.999023438 265.734375 477.999023438 264.728515625 477.999023438 c 2,22,-1
 1.0068359375 477.999023438 l 2,23,24
 0 477.999023438 0 477.999023438 0 476.993164062 c 2,25,-1
 0 1.892578125 l 2,26,27
 0 0.8857421875 0 0.8857421875 1.0068359375 0.8857421875 c 2,28,-1
 105.689453125 0.8857421875 l 2,29,30
 106.6953125 0.8857421875 106.6953125 0.8857421875 106.6953125 1.892578125 c 2,31,-1
 106.6953125 212.264648438 l 1,32,-1
 264.728515625 212.264648438 l 2,33,34
 265.734375 212.264648438 265.734375 212.264648438 265.734375 213.271484375 c 2,35,-1
 265.734375 317.955078125 l 2,36,37
 265.734375 318.9609375 265.734375 318.9609375 264.728515625 318.9609375 c 2,38,-1
 106.6953125 318.9609375 l 1,39,-1
 106.6953125 369.290039062 l 1,16,-1
105.689453125 213.271484375 m 1,40,-1
 105.689453125 1.892578125 l 1,41,-1
 1.0068359375 1.892578125 l 1,42,-1
 1.0068359375 476.993164062 l 1,43,-1
 264.728515625 476.993164062 l 1,44,-1
 264.728515625 370.296875 l 1,45,-1
 105.689453125 370.296875 l 1,46,-1
 105.689453125 317.955078125 l 1,47,-1
 264.728515625 317.955078125 l 1,48,-1
 264.728515625 213.271484375 l 1,49,-1
 105.689453125 213.271484375 l 1,40,-1
EndSplineSet
EndChar

StartChar: g
Encoding: 103 103 50
Width: 433
VWidth: 1000
GlyphClass: 1
Flags: W
LayerCount: 2
Fore
SplineSet
264.893554688 162.40625 m 2,0,-1
 264.893554688 215.106445312 l 1,1,-1
 212.619140625 215.262695312 l 1,2,-1
 159.494140625 215.106445312 l 1,3,-1
 159.494140625 320.505859375 l 1,4,-1
 370.29296875 320.505859375 l 1,5,-1
 370.29296875 57.0078125 l 2,6,7
 370.29296875 37.2456054689 370.29296875 37.2456054689 353.823974609 20.7766113282 c 128,-1,8
 337.354980469 4.3076171875 337.354980469 4.3076171875 317.592773438 4.3076171875 c 2,9,-1
 159.494140625 4.3076171875 l 2,10,11
 1.39501953125 4.3076171875 1.39501953125 4.3076171875 1.3955078125 162.40625 c 2,12,-1
 1.3955078125 320.505859375 l 2,13,14
 1.3955078125 478.604980469 1.3955078125 478.604980469 159.494140625 478.604492188 c 2,15,-1
 370.29296875 478.604492188 l 1,16,-1
 370.29296875 373.205078125 l 1,17,-1
 159.494140625 373.205078125 l 2,18,19
 139.731933594 373.205078125 139.731933594 373.205078125 123.263427734 356.736572266 c 128,-1,20
 106.794921875 340.268066406 106.794921875 340.268066406 106.794921875 320.505859375 c 2,21,-1
 106.794921875 162.40625 l 2,22,23
 106.794921875 142.643880206 106.794921875 142.643880206 123.263142904 126.175455728 c 128,-1,24
 139.731363933 109.70703125 139.731363933 109.70703125 159.494140625 109.70703125 c 2,25,-1
 212.193359375 109.70703125 l 2,26,27
 251.71850586 109.70703125 251.71850586 109.70703125 258.306030274 116.294433594 c 128,-1,28
 264.893554688 122.881835938 264.893554688 122.881835938 264.893554688 162.40625 c 2,0,-1
EndSplineSet
Validated: 33
EndChar

StartChar: h
Encoding: 104 104 51
Width: 432
VWidth: 1000
GlyphClass: 1
Flags: W
LayerCount: 2
Fore
SplineSet
106.794921875 215.106445312 m 1,0,-1
 106.794921875 4.3076171875 l 1,1,-1
 1.3955078125 4.3076171875 l 1,2,-1
 1.3955078125 478.604492188 l 1,3,-1
 106.794921875 478.604492188 l 1,4,-1
 106.794921875 320.505859375 l 1,5,-1
 264.893554688 320.505859375 l 1,6,-1
 264.893554688 478.604492188 l 1,7,-1
 370.29296875 478.604492188 l 1,8,-1
 370.29296875 4.3076171875 l 1,9,-1
 264.893554688 4.3076171875 l 1,10,-1
 264.893554688 215.106445312 l 1,11,-1
 106.794921875 215.106445312 l 1,0,-1
EndSplineSet
Validated: 1
EndChar

StartChar: i
Encoding: 105 105 52
Width: 170
VWidth: 1000
GlyphClass: 1
Flags: W
LayerCount: 2
Fore
SplineSet
2.396484375 479.603515625 m 1,0,-1
 108.240234375 479.603515625 l 1,1,-1
 108.240234375 3.30859375 l 1,2,-1
 2.396484375 3.30859375 l 1,3,-1
 2.396484375 479.603515625 l 1,0,-1
EndSplineSet
Validated: 1
EndChar

StartChar: j
Encoding: 106 106 53
Width: 378
VWidth: 1000
GlyphClass: 1
Flags: W
LayerCount: 2
Fore
SplineSet
211.193359375 478.604492188 m 1,0,-1
 316.592773438 478.604492188 l 1,1,-1
 316.592773438 162.40625 l 2,2,3
 316.592773438 87.7488697191 316.592773438 87.7488697191 269.657310486 46.0282434533 c 128,-1,4
 222.721847535 4.3076171875 222.721847535 4.3076171875 158.494140625 4.3076171875 c 128,-1,5
 94.2664337151 4.3076171875 94.2664337151 4.3076171875 47.3309707638 46.0282434532 c 128,-1,6
 0.3955078125 87.748869719 0.3955078125 87.748869719 0.3955078125 162.40625 c 2,7,-1
 0.3955078125 215.106445312 l 1,8,-1
 105.794921875 215.106445312 l 1,9,-1
 105.794921875 162.40625 l 2,10,11
 105.794921875 143.585055603 105.794921875 143.585055603 109.774673462 132.096349599 c 128,-1,12
 113.754425049 120.607643595 113.754425049 120.607643595 122.812011719 116.137598155 c 128,-1,13
 131.869598389 111.667552714 131.869598389 111.667552714 138.594284058 110.687291982 c 128,-1,14
 145.318969727 109.70703125 145.318969727 109.70703125 158.494140625 109.70703125 c 128,-1,15
 171.668945312 109.70703125 171.668945312 109.70703125 178.393585205 110.687299456 c 128,-1,16
 185.118225098 111.667567662 185.118225098 111.667567662 194.17590332 116.137590681 c 128,-1,17
 203.233581543 120.6076137 203.233581543 120.6076137 207.213470459 132.096357073 c 128,-1,18
 211.193359375 143.585100446 211.193359375 143.585100446 211.193359375 162.40625 c 2,19,-1
 211.193359375 478.604492188 l 1,0,-1
EndSplineSet
Validated: 1
EndChar

StartChar: k
Encoding: 107 107 54
Width: 433
VWidth: 1000
GlyphClass: 1
Flags: W
LayerCount: 2
Fore
SplineSet
106.794921875 215.106445312 m 1,0,-1
 106.794921875 4.3076171875 l 1,1,-1
 1.3955078125 4.3076171875 l 1,2,-1
 1.3955078125 478.604492188 l 1,3,-1
 106.794921875 478.604492188 l 1,4,-1
 106.794921875 294.15625 l 1,5,-1
 291.243164062 478.604492188 l 1,6,-1
 370.29296875 478.604492188 l 1,7,-1
 370.29296875 452.254882812 l 1,8,-1
 185.84375 267.806640625 l 1,9,-1
 212.193359375 267.806640625 l 2,10,11
 370.292480469 267.806640625 370.292480469 267.806640625 370.29296875 109.70703125 c 2,12,-1
 370.29296875 4.3076171875 l 1,13,-1
 264.893554688 4.3076171875 l 1,14,-1
 264.893554688 162.40625 l 2,15,16
 264.893554688 182.169189453 264.893554688 182.169189453 248.424926758 198.637817383 c 128,-1,17
 231.956298828 215.106445312 231.956298828 215.106445312 212.193359375 215.106445312 c 2,18,-1
 106.794921875 215.106445312 l 1,0,-1
EndSplineSet
Validated: 1
EndChar

StartChar: l
Encoding: 108 108 55
Width: 380
VWidth: 1000
GlyphClass: 1
Flags: W
LayerCount: 2
Fore
SplineSet
317.592773438 108.70703125 m 1,0,-1
 317.592773438 3.3076171875 l 1,1,-1
 1.3955078125 3.3076171875 l 1,2,-1
 1.3955078125 477.604492188 l 1,3,-1
 106.794921875 477.604492188 l 1,4,-1
 106.794921875 108.70703125 l 1,5,-1
 317.592773438 108.70703125 l 1,0,-1
EndSplineSet
Validated: 1
EndChar

StartChar: m
Encoding: 109 109 56
Width: 588
VWidth: 1000
GlyphClass: 1
Flags: W
LayerCount: 2
Fore
SplineSet
105.794921875 294.15625 m 1,0,-1
 105.794921875 4.3076171875 l 1,1,-1
 0.3955078125 4.3076171875 l 1,2,-1
 0.3955078125 478.604492188 l 1,3,-1
 79.4443359375 478.604492188 l 1,4,-1
 263.893554688 162.40625 l 1,5,-1
 448.341796875 478.604492188 l 1,6,-1
 527.391601562 478.604492188 l 1,7,-1
 527.391601562 4.3076171875 l 1,8,-1
 421.9921875 4.3076171875 l 1,9,-1
 421.9921875 294.15625 l 1,10,-1
 263.893554688 57.0078125 l 1,11,-1
 105.794921875 294.15625 l 1,0,-1
EndSplineSet
Validated: 1
EndChar

StartChar: n
Encoding: 110 110 57
Width: 432
VWidth: 1000
GlyphClass: 1
Flags: W
LayerCount: 2
Fore
SplineSet
106.794921875 373.205078125 m 1,0,-1
 106.794921875 4.3076171875 l 1,1,-1
 1.3955078125 4.3076171875 l 1,2,-1
 1.3955078125 478.604492188 l 1,3,-1
 159.494140625 478.604492188 l 2,4,5
 216.428454964 478.604492188 216.428454964 478.604492188 258.737206076 460.854945807 c 128,-1,6
 301.045957189 443.105399427 301.045957189 443.105399427 324.572654153 412.364017816 c 128,-1,7
 348.099351118 381.622636206 348.099351118 381.622636206 359.196159934 345.574733405 c 128,-1,8
 370.29296875 309.526830603 370.29296875 309.526830603 370.29296875 267.806640625 c 2,9,-1
 370.29296875 4.3076171875 l 1,10,-1
 264.893554688 4.3076171875 l 1,11,-1
 264.893554688 320.505859375 l 2,12,13
 264.893554688 340.268147785 264.893554688 340.268147785 248.424886068 356.736612955 c 128,-1,14
 231.956217448 373.205078125 231.956217448 373.205078125 212.193359375 373.205078125 c 2,15,-1
 106.794921875 373.205078125 l 1,0,-1
EndSplineSet
Validated: 1
EndChar

StartChar: o
Encoding: 111 111 58
Width: 432
VWidth: 1000
GlyphClass: 1
Flags: W
LayerCount: 2
Fore
SplineSet
107.239257812 319.64453125 m 2,0,1
 107.239257812 339.188476562 107.239257812 339.188476562 123.525390625 355.474609375 c 128,-1,2
 139.811523438 371.760742188 139.811523438 371.760742188 159.35546875 371.760742188 c 2,3,-1
 211.471679688 371.760742188 l 2,4,5
 231.014973957 371.760742188 231.014973957 371.760742188 247.30094401 355.474568685 c 128,-1,6
 263.586914062 339.188395182 263.586914062 339.188395182 263.586914062 319.64453125 c 2,7,-1
 263.586914062 163.296875 l 2,8,9
 263.586914062 143.753011068 263.586914062 143.753011068 247.30094401 127.466837565 c 128,-1,10
 231.014973957 111.180664062 231.014973957 111.180664062 211.471679688 111.180664062 c 2,11,-1
 159.35546875 111.180664062 l 2,12,13
 139.811523438 111.180664062 139.811523438 111.180664062 123.525390625 127.466796875 c 128,-1,14
 107.239257812 143.752929688 107.239257812 143.752929688 107.239257812 163.296875 c 2,15,-1
 107.239257812 319.64453125 l 2,0,1
1.001953125 163.296875 m 2,16,17
 1.001953125 4.943359375 1.001953125 4.943359375 159.35546875 4.943359375 c 2,18,-1
 211.471679688 4.943359375 l 2,19,20
 369.82421875 4.943359375 369.82421875 4.943359375 369.82421875 163.296875 c 2,21,-1
 369.82421875 319.64453125 l 2,22,23
 369.82421875 477.998046875 369.82421875 477.998046875 211.471679688 477.998046875 c 2,24,-1
 159.35546875 477.998046875 l 2,25,26
 1.001953125 477.998046875 1.001953125 477.998046875 1.001953125 319.64453125 c 2,27,-1
 1.001953125 163.296875 l 2,16,17
EndSplineSet
Validated: 9
EndChar

StartChar: p
Encoding: 112 112 59
Width: 434
VWidth: 1000
GlyphClass: 1
Flags: W
LayerCount: 2
Fore
SplineSet
109.239257812 371.760742188 m 1,0,-1
 109.239257812 267.528320312 l 1,1,-1
 213.471679688 267.528320312 l 2,2,3
 233.0148112 267.528320312 233.0148112 267.528320312 249.300862631 283.814778645 c 128,-1,4
 265.586914062 300.101236979 265.586914062 300.101236979 265.586914062 319.64453125 c 128,-1,5
 265.586914062 339.188395182 265.586914062 339.188395182 249.30094401 355.474568685 c 128,-1,6
 233.014973957 371.760742188 233.014973957 371.760742188 213.471679688 371.760742188 c 2,7,-1
 109.239257812 371.760742188 l 1,0,-1
161.35546875 477.998046875 m 2,8,9
 217.157385054 477.998046875 217.157385054 477.998046875 260.449474047 460.958479743 c 128,-1,10
 303.74156304 443.91891261 303.74156304 443.91891261 326.568760206 417.990540643 c 128,-1,11
 349.395957372 392.062168676 349.395957372 392.062168676 360.610088061 366.748122077 c 128,-1,12
 371.82421875 341.434075477 371.82421875 341.434075477 371.82421875 319.64453125 c 2,13,-1
 371.82421875 267.528320312 l 2,14,15
 371.82421875 225.09153214 371.82421875 225.09153214 330.231512607 194.19420357 c 128,-1,16
 288.638806465 163.296875 288.638806465 163.296875 213.471679688 163.296875 c 2,17,-1
 109.239257812 163.296875 l 1,18,-1
 109.239257812 4.943359375 l 1,19,-1
 3.001953125 4.943359375 l 1,20,-1
 3.001953125 477.998046875 l 1,21,-1
 161.35546875 477.998046875 l 2,8,9
EndSplineSet
Validated: 1
EndChar

StartChar: q
Encoding: 113 113 60
Width: 460
VWidth: 1000
GlyphClass: 1
Flags: W
LayerCount: 2
Fore
SplineSet
321.879882812 37.3779296875 m 2,0,1
 321.672851562 37.51171875 321.672851562 37.51171875 312.432617188 30.1513671875 c 128,-1,2
 303.192382812 22.791015625 303.192382812 22.791015625 276.359375 14.1474609375 c 128,-1,3
 249.526367188 5.50390625 249.526367188 5.50390625 211.221679688 5.50390625 c 2,4,-1
 159.166992188 5.50390625 l 2,5,6
 2.001953125 5.50390625 2.001953125 5.50390625 2.001953125 162.668945312 c 2,7,-1
 2.001953125 318.833007812 l 2,8,9
 2.001953125 475.998046875 2.001953125 475.998046875 159.166992188 475.998046875 c 2,10,-1
 211.221679688 475.998046875 l 2,11,12
 368.38671875 475.998046875 368.38671875 475.998046875 368.38671875 318.833007812 c 2,13,-1
 368.38671875 162.668945312 l 2,14,15
 368.38671875 153.362304688 368.38671875 153.362304688 367.561523438 143.497070312 c 128,-1,16
 366.737304688 133.630859375 366.737304688 133.630859375 365.559570312 126.057617188 c 128,-1,17
 364.3828125 118.485351562 364.3828125 118.485351562 363.205078125 112.340820312 c 128,-1,18
 362.02734375 106.197265625 362.02734375 106.197265625 361.203125 102.526367188 c 128,-1,19
 360.377929688 98.8544921875 360.377929688 98.8544921875 360.377929688 98.6015625 c 0,20,21
 360.377929688 98.078125 360.377929688 98.078125 360.807617188 97.779296875 c 2,22,-1
 406.856445312 65.74609375 l 2,23,24
 438.676757812 44.9404296875 438.676757812 44.9404296875 424.157226562 20.6435546875 c 0,25,26
 410.771484375 -1.7548828125 410.771484375 -1.7548828125 379.772460938 4.748046875 c 0,27,28
 367.528320312 7.31640625 367.528320312 7.31640625 355.94140625 15.337890625 c 2,29,-1
 321.879882812 37.3779296875 l 2,0,1
0 318.833007812 m 2,30,-1
 0 162.668945312 l 2,31,32
 0 3.501953125 0 3.501953125 159.166992188 3.501953125 c 2,33,-1
 211.221679688 3.501953125 l 2,34,35
 283.334960938 3.501953125 283.334960938 3.501953125 321.4140625 35.294921875 c 1,36,-1
 354.803710938 13.6904296875 l 2,37,38
 388.810546875 -9.8525390625 388.810546875 -9.8525390625 416.063476562 9.2822265625 c 0,39,40
 439.057617188 25.4267578125 439.057617188 25.4267578125 425.994140625 49.1689453125 c 0,41,42
 420.446289062 59.251953125 420.446289062 59.251953125 407.998046875 67.390625 c 0,43,44
 369.875976562 93.91015625 369.875976562 93.91015625 362.500976562 99.0400390625 c 1,45,46
 370.388671875 134.725585938 370.388671875 134.725585938 370.388671875 162.668945312 c 2,47,-1
 370.388671875 318.833007812 l 2,48,49
 370.388671875 478 370.388671875 478 211.221679688 478 c 2,50,-1
 159.166992188 478 l 2,51,52
 0 478 0 478 0 318.833007812 c 2,30,-1
108.11328125 162.668945312 m 2,53,-1
 108.11328125 318.833007812 l 2,54,55
 108.11328125 337.912109375 108.11328125 337.912109375 124.100585938 353.899414062 c 128,-1,56
 140.087890625 369.88671875 140.087890625 369.88671875 159.166992188 369.88671875 c 2,57,-1
 211.221679688 369.88671875 l 2,58,59
 230.299804688 369.88671875 230.299804688 369.88671875 246.288085938 353.899414062 c 128,-1,60
 262.275390625 337.912109375 262.275390625 337.912109375 262.275390625 318.833007812 c 2,61,-1
 262.275390625 164.948242188 l 1,62,63
 249.524414062 175.706054688 249.524414062 175.706054688 231.447265625 167.1875 c 128,-1,64
 213.370117188 158.668945312 213.370117188 158.668945312 206.703125 142.443359375 c 128,-1,65
 200.03515625 126.217773438 200.03515625 126.217773438 208.942382812 111.615234375 c 1,66,-1
 159.166992188 111.615234375 l 2,67,68
 140.087890625 111.615234375 140.087890625 111.615234375 124.100585938 127.602539062 c 128,-1,69
 108.11328125 143.590820312 108.11328125 143.590820312 108.11328125 162.668945312 c 2,53,-1
246.241210938 168.76171875 m 0,70,71
 251.1875 168.76171875 251.1875 168.76171875 255.140625 166.98828125 c 128,-1,72
 259.092773438 165.21484375 259.092773438 165.21484375 261.087890625 163.44140625 c 128,-1,73
 263.083007812 161.66796875 263.083007812 161.66796875 263.276367188 161.66796875 c 0,74,75
 264.27734375 161.66796875 264.27734375 161.66796875 264.27734375 162.668945312 c 2,76,-1
 264.27734375 318.833007812 l 2,77,78
 264.27734375 338.795898438 264.27734375 338.795898438 247.73046875 355.341796875 c 128,-1,79
 231.18359375 371.888671875 231.18359375 371.888671875 211.221679688 371.888671875 c 2,80,-1
 159.166992188 371.888671875 l 2,81,82
 139.204101562 371.888671875 139.204101562 371.888671875 122.658203125 355.341796875 c 128,-1,83
 106.111328125 338.795898438 106.111328125 338.795898438 106.111328125 318.833007812 c 2,84,-1
 106.111328125 162.668945312 l 2,85,86
 106.111328125 142.70703125 106.111328125 142.70703125 122.658203125 126.16015625 c 128,-1,87
 139.204101562 109.61328125 139.204101562 109.61328125 159.166992188 109.61328125 c 2,88,-1
 211.221679688 109.61328125 l 2,89,90
 213.104492188 110.52734375 213.104492188 110.52734375 211.750976562 111.25 c 128,-1,91
 210.396484375 111.97265625 210.396484375 111.97265625 207.762695312 116.89453125 c 128,-1,92
 205.12890625 121.817382812 205.12890625 121.817382812 205.12890625 127.649414062 c 0,93,94
 205.12890625 142.10546875 205.12890625 142.10546875 218.45703125 155.43359375 c 128,-1,95
 231.78515625 168.76171875 231.78515625 168.76171875 246.241210938 168.76171875 c 0,70,71
107.112304688 162.668945312 m 2,96,97
 107.112304688 143.1484375 107.112304688 143.1484375 123.37890625 126.880859375 c 128,-1,98
 139.646484375 110.614257812 139.646484375 110.614257812 159.166992188 110.614257812 c 2,99,-1
 211.221679688 110.614257812 l 1,100,101
 198.930664062 122.905273438 198.930664062 122.905273438 207.366210938 141.461914062 c 128,-1,102
 215.80078125 160.017578125 215.80078125 160.017578125 232.428710938 166.524414062 c 128,-1,103
 249.057617188 173.03125 249.057617188 173.03125 263.276367188 162.668945312 c 1,104,-1
 263.276367188 318.833007812 l 2,105,106
 263.276367188 338.353515625 263.276367188 338.353515625 247.009765625 354.62109375 c 128,-1,107
 230.7421875 370.887695312 230.7421875 370.887695312 211.221679688 370.887695312 c 2,108,-1
 159.166992188 370.887695312 l 2,109,110
 139.646484375 370.887695312 139.646484375 370.887695312 123.37890625 354.62109375 c 128,-1,111
 107.112304688 338.353515625 107.112304688 338.353515625 107.112304688 318.833007812 c 2,112,-1
 107.112304688 162.668945312 l 2,96,97
1.0009765625 318.833007812 m 2,113,114
 1.0009765625 476.999023438 1.0009765625 476.999023438 159.166992188 476.999023438 c 2,115,-1
 211.221679688 476.999023438 l 2,116,117
 369.387695312 476.999023438 369.387695312 476.999023438 369.387695312 318.833007812 c 2,118,-1
 369.387695312 162.668945312 l 2,119,120
 369.387695312 134.63671875 369.387695312 134.63671875 361.37890625 98.6015625 c 1,121,-1
 407.427734375 66.568359375 l 2,122,123
 439.326171875 45.7109375 439.326171875 45.7109375 425.444335938 20.900390625 c 0,124,125
 412.719726562 -1.8427734375 412.719726562 -1.8427734375 381.80859375 3.3359375 c 0,126,127
 368.233398438 5.6103515625 368.233398438 5.6103515625 355.373046875 14.513671875 c 2,128,-1
 321.336914062 36.537109375 l 1,129,130
 283.478515625 4.5029296875 283.478515625 4.5029296875 211.221679688 4.5029296875 c 2,131,-1
 159.166992188 4.5029296875 l 2,132,133
 1.0009765625 4.5029296875 1.0009765625 4.5029296875 1.0009765625 162.668945312 c 2,134,-1
 1.0009765625 318.833007812 l 2,113,114
EndSplineSet
EndChar

StartChar: r
Encoding: 114 114 61
Width: 445
VWidth: 1000
GlyphClass: 1
Flags: W
LayerCount: 2
Fore
SplineSet
109.239257812 371.760742188 m 1,0,-1
 109.239257812 267.529296875 l 1,1,-1
 213.471679688 267.529296875 l 2,2,3
 232.689100953 267.529296875 232.689100953 267.529296875 249.138007507 284.400065104 c 128,-1,4
 265.586914062 301.270833333 265.586914062 301.270833333 265.586914062 319.64453125 c 0,5,6
 265.586914062 339.188395182 265.586914062 339.188395182 249.30094401 355.474568685 c 128,-1,7
 233.014973957 371.760742188 233.014973957 371.760742188 213.471679688 371.760742188 c 2,8,-1
 109.239257812 371.760742188 l 1,0,-1
161.35546875 477.998046875 m 2,9,10
 217.157385054 477.998046875 217.157385054 477.998046875 260.449474047 460.958479743 c 128,-1,11
 303.74156304 443.91891261 303.74156304 443.91891261 326.568760206 417.990540643 c 128,-1,12
 349.395957372 392.062168676 349.395957372 392.062168676 360.610088061 366.748122077 c 128,-1,13
 371.82421875 341.434075477 371.82421875 341.434075477 371.82421875 319.64453125 c 0,14,15
 371.82421875 277.116551377 371.82421875 277.116551377 350.860649435 246.264818658 c 128,-1,16
 329.897080119 215.413085938 329.897080119 215.413085938 291.645507812 215.413085938 c 1,17,18
 314.696858723 215.413085938 314.696858723 215.413085938 343.260538737 181.655990391 c 128,-1,19
 371.82421875 147.898894843 371.82421875 147.898894843 371.82421875 111.180664062 c 2,20,-1
 371.82421875 4.943359375 l 1,21,-1
 265.586914062 4.943359375 l 1,22,-1
 265.586914062 111.180664062 l 2,23,24
 265.586914062 130.723958333 265.586914062 130.723958333 249.300862631 147.010416667 c 128,-1,25
 233.0148112 163.296875 233.0148112 163.296875 213.471679688 163.296875 c 2,26,-1
 109.239257812 163.296875 l 1,27,-1
 109.239257812 4.943359375 l 1,28,-1
 3.001953125 4.943359375 l 1,29,-1
 3.001953125 477.998046875 l 1,30,-1
 161.35546875 477.998046875 l 2,9,10
EndSplineSet
Validated: 1
EndChar

StartChar: s
Encoding: 115 115 62
Width: 434
VWidth: 1000
GlyphClass: 1
Flags: W
LayerCount: 2
Fore
SplineSet
2.9541015625 109.70703125 m 1,0,-1
 213.752929688 109.70703125 l 2,1,2
 233.515136719 109.70703125 233.515136719 109.70703125 249.983642577 126.17553711 c 128,-1,3
 266.452148435 142.644042969 266.452148435 142.644042969 266.452148432 162.40625 c 128,-1,4
 266.452148438 182.168538411 266.452148438 182.168538411 249.983601889 198.637491862 c 128,-1,5
 233.515055341 215.106445312 233.515055341 215.106445312 213.752929688 215.106445312 c 2,6,-1
 161.052734375 215.106445312 l 2,7,8
 86.395534939 215.106445312 86.395534939 215.106445312 44.6748182507 246.397079468 c 128,-1,9
 2.9541015625 277.687713623 2.9541015625 277.687713623 2.9541015625 320.505859375 c 2,10,-1
 2.9541015625 373.205078125 l 2,11,12
 2.9541015625 416.023773194 2.9541015625 416.023773194 44.6747097437 447.314132691 c 128,-1,13
 86.395317925 478.604492188 86.395317925 478.604492188 161.052734375 478.604492188 c 2,14,-1
 213.752929688 478.604492188 l 2,15,16
 250.490683291 478.604492188 250.490683291 478.604492188 278.339416305 466.25301742 c 128,-1,17
 306.188149319 453.901542653 306.188149319 453.901542653 318.792968949 439.902957922 c 128,-1,18
 331.397788579 425.904373192 331.397788579 425.904373192 347.507262985 403.672023768 c 128,-1,19
 363.61673739 381.439674343 363.61673739 381.439674343 371.8515625 373.205078125 c 1,20,-1
 161.052734375 373.205078125 l 2,21,22
 108.353515625 373.205078125 108.353515625 373.205078125 108.353515625 346.85546875 c 128,-1,23
 108.353515625 320.505859375 108.353515625 320.505859375 161.052734375 320.505859375 c 2,24,-1
 213.752929688 320.505859375 l 2,25,26
 290.920385244 320.505859375 290.920385244 320.505859375 331.385973872 285.098445892 c 128,-1,27
 371.8515625 249.69103241 371.8515625 249.69103241 371.8515625 188.756835938 c 2,28,-1
 371.8515625 136.056640625 l 2,29,30
 371.8515625 75.1229934689 371.8515625 75.1229934689 331.385874223 39.7153053282 c 128,-1,31
 290.920185946 4.3076171875 290.920185946 4.3076171875 213.752929688 4.3076171875 c 2,32,-1
 161.052734375 4.3076171875 l 2,33,34
 124.315304728 4.3076171875 124.315304728 4.3076171875 96.4664759589 16.6591542562 c 128,-1,35
 68.6176471899 29.0106913249 68.6176471899 29.0106913249 56.0127415704 43.009089152 c 128,-1,36
 43.407835951 57.0074869792 43.407835951 57.0074869792 27.2980799628 79.2401479085 c 128,-1,37
 11.1883239746 101.472808838 11.1883239746 101.472808838 2.9541015625 109.70703125 c 1,0,-1
EndSplineSet
Validated: 33
EndChar

StartChar: t
Encoding: 116 116 63
Width: 380
VWidth: 1000
GlyphClass: 1
Flags: W
LayerCount: 2
Fore
SplineSet
212.193359375 3.3076171875 m 1,0,-1
 106.794921875 3.3076171875 l 1,1,-1
 106.794921875 372.205078125 l 1,2,-1
 1.3955078125 372.205078125 l 1,3,-1
 1.3955078125 477.604492188 l 1,4,-1
 317.592773438 477.604492188 l 1,5,-1
 317.592773438 372.205078125 l 1,6,-1
 212.193359375 372.205078125 l 1,7,-1
 212.193359375 3.3076171875 l 1,0,-1
EndSplineSet
Validated: 1
EndChar

StartChar: u
Encoding: 117 117 64
Width: 432
VWidth: 1000
GlyphClass: 1
Flags: W
LayerCount: 2
Fore
SplineSet
106.240234375 479.603515625 m 1,0,-1
 0.396484375 479.603515625 l 1,1,-1
 0.396484375 162.073242188 l 2,2,3
 0.396484375 3.31054687475 0.396484375 3.31054687475 159.161132812 3.30859375 c 2,4,-1
 212.083007812 3.30859375 l 2,5,6
 370.847167969 3.30859375 370.847167969 3.30859375 370.84765625 162.073242188 c 2,7,-1
 370.84765625 479.603515625 l 1,8,-1
 265.00390625 479.603515625 l 1,9,-1
 265.00390625 162.073242188 l 2,10,11
 265.00390625 142.227539063 265.00390625 142.227539063 248.466308594 125.689941406 c 128,-1,12
 231.928710937 109.15234375 231.928710937 109.15234375 212.083007812 109.15234375 c 2,13,-1
 159.161132812 109.15234375 l 2,14,15
 139.315429687 109.15234375 139.315429687 109.15234375 122.777832031 125.689941406 c 128,-1,16
 106.240234375 142.227539063 106.240234375 142.227539063 106.240234375 162.073242188 c 2,17,-1
 106.240234375 479.603515625 l 1,0,-1
EndSplineSet
Validated: 9
EndChar

StartChar: v
Encoding: 118 118 65
Width: 432
VWidth: 1000
GlyphClass: 1
Flags: W
LayerCount: 2
Fore
SplineSet
238.1640625 4.30859375 m 1,0,-1
 133.931640625 4.30859375 l 1,1,-1
 1.63671875 355.090820312 l 1,2,-1
 1.63671875 477.36328125 l 1,3,-1
 107.874023438 477.36328125 l 1,4,-1
 107.874023438 319.009765625 l 1,5,-1
 186.047851562 110.545898438 l 1,6,-1
 264.22265625 319.009765625 l 1,7,-1
 264.22265625 477.36328125 l 1,8,-1
 370.458984375 477.36328125 l 1,9,-1
 370.458984375 355.090820312 l 1,10,-1
 238.1640625 4.30859375 l 1,0,-1
EndSplineSet
Validated: 1
EndChar

StartChar: w
Encoding: 119 119 66
Width: 643
VWidth: 1000
GlyphClass: 1
Flags: W
LayerCount: 2
Fore
SplineSet
318.592773438 267.806640625 m 1,0,-1
 371.29296875 373.205078125 l 1,1,-1
 371.29296875 478.604492188 l 1,2,-1
 265.893554688 478.604492188 l 1,3,-1
 265.893554688 320.505859375 l 1,4,-1
 186.842773438 109.70703125 l 1,5,-1
 107.794921875 320.505859375 l 1,6,-1
 107.794921875 478.604492188 l 1,7,-1
 2.3955078125 478.604492188 l 1,8,-1
 2.3955078125 373.205078125 l 1,9,-1
 160.494140625 4.3076171875 l 1,10,-1
 213.193359375 4.3076171875 l 1,11,-1
 292.243164062 162.40625 l 1,12,-1
 371.29296875 4.3076171875 l 1,13,-1
 423.9921875 4.3076171875 l 1,14,-1
 582.090820312 373.205078125 l 1,15,-1
 582.090820312 478.604492188 l 1,16,-1
 476.69140625 478.604492188 l 1,17,-1
 476.69140625 320.505859375 l 1,18,-1
 397.642578125 109.70703125 l 1,19,-1
 318.592773438 267.806640625 l 1,0,-1
EndSplineSet
Validated: 9
EndChar

StartChar: x
Encoding: 120 120 67
Width: 433
VWidth: 1000
GlyphClass: 1
Flags: W
LayerCount: 2
Fore
SplineSet
106.794921875 83.357421875 m 1,0,-1
 106.794921875 4.3076171875 l 1,1,-1
 1.3955078125 4.3076171875 l 1,2,-1
 1.3955078125 83.357421875 l 1,3,-1
 159.494140625 241.456054688 l 1,4,-1
 1.3955078125 399.555664062 l 1,5,-1
 1.3955078125 478.604492188 l 1,6,-1
 106.794921875 478.604492188 l 1,7,-1
 106.794921875 399.555664062 l 1,8,-1
 185.84375 320.505859375 l 1,9,-1
 264.893554688 399.555664062 l 1,10,-1
 264.893554688 478.604492188 l 1,11,-1
 370.29296875 478.604492188 l 1,12,-1
 370.29296875 399.555664062 l 1,13,-1
 212.193359375 241.456054688 l 1,14,-1
 370.29296875 83.357421875 l 1,15,-1
 370.29296875 4.3076171875 l 1,16,-1
 264.893554688 4.3076171875 l 1,17,-1
 264.893554688 83.357421875 l 1,18,-1
 185.84375 162.40625 l 1,19,-1
 106.794921875 83.357421875 l 1,0,-1
EndSplineSet
Validated: 1
EndChar

StartChar: y
Encoding: 121 121 68
Width: 377
VWidth: 1000
GlyphClass: 1
Flags: W
LayerCount: 2
Fore
SplineSet
318.076171875 475.987304688 m 1,0,-1
 318.076171875 370.296875 l 2,1,2
 318.076171875 349.684570312 318.076171875 349.684570312 317.973632812 340.193359375 c 128,-1,3
 317.87109375 330.702148438 317.87109375 330.702148438 317.252929688 314.104492188 c 128,-1,4
 316.634765625 297.506835938 316.634765625 297.506835938 315.258789062 290.11328125 c 128,-1,5
 313.883789062 282.719726562 313.883789062 282.719726562 311.374023438 270.381835938 c 128,-1,6
 308.864257812 258.043945312 308.864257812 258.043945312 304.940429688 252.719726562 c 128,-1,7
 301.015625 247.396484375 301.015625 247.396484375 295.338867188 239.290039062 c 128,-1,8
 289.662109375 231.182617188 289.662109375 231.182617188 281.9140625 227.901367188 c 128,-1,9
 274.165039062 224.620117188 274.165039062 224.620117188 264.044921875 220.716796875 c 128,-1,10
 253.924804688 216.8125 253.924804688 216.8125 241.076171875 215.545898438 c 128,-1,11
 228.227539062 214.278320312 228.227539062 214.278320312 212.38671875 214.278320312 c 0,12,13
 211.379882812 214.278320312 211.379882812 214.278320312 211.379882812 213.271484375 c 2,14,-1
 211.379882812 2.8994140625 l 1,15,-1
 108.709960938 2.8994140625 l 1,16,-1
 108.709960938 213.271484375 l 2,17,18
 108.709960938 214.278320312 108.709960938 214.278320312 107.703125 214.278320312 c 0,19,20
 91.8623046875 214.278320312 91.8623046875 214.278320312 79.013671875 215.545898438 c 128,-1,21
 66.1650390625 216.8125 66.1650390625 216.8125 56.044921875 220.716796875 c 128,-1,22
 45.9248046875 224.620117188 45.9248046875 224.620117188 38.17578125 227.901367188 c 128,-1,23
 30.427734375 231.182617188 30.427734375 231.182617188 24.7509765625 239.290039062 c 128,-1,24
 19.07421875 247.396484375 19.07421875 247.396484375 15.1494140625 252.719726562 c 128,-1,25
 11.2255859375 258.043945312 11.2255859375 258.043945312 8.7158203125 270.381835938 c 128,-1,26
 6.2060546875 282.719726562 6.2060546875 282.719726562 4.8310546875 290.11328125 c 128,-1,27
 3.455078125 297.506835938 3.455078125 297.506835938 2.8369140625 314.104492188 c 128,-1,28
 2.21875 330.702148438 2.21875 330.702148438 2.1162109375 340.193359375 c 128,-1,29
 2.013671875 349.684570312 2.013671875 349.684570312 2.013671875 370.296875 c 2,30,-1
 2.013671875 475.987304688 l 1,31,-1
 106.696289062 475.987304688 l 1,32,-1
 106.696289062 317.955078125 l 2,33,34
 106.696289062 316.94921875 106.696289062 316.94921875 107.703125 316.94921875 c 2,35,-1
 212.38671875 316.94921875 l 2,36,37
 213.393554688 316.94921875 213.393554688 316.94921875 213.393554688 317.955078125 c 2,38,-1
 213.393554688 475.987304688 l 1,39,-1
 318.076171875 475.987304688 l 1,0,-1
106.696289062 1.892578125 m 2,40,41
 106.696289062 0.88671875 106.696289062 0.88671875 107.703125 0.88671875 c 2,42,-1
 212.38671875 0.88671875 l 2,43,44
 213.393554688 0.88671875 213.393554688 0.88671875 213.393554688 1.892578125 c 2,45,-1
 213.393554688 212.266601562 l 1,46,47
 233.241210938 212.329101562 233.241210938 212.329101562 248.543945312 214.48046875 c 128,-1,48
 263.84765625 216.631835938 263.84765625 216.631835938 274.999023438 222.8359375 c 128,-1,49
 286.151367188 229.040039062 286.151367188 229.040039062 293.942382812 234.53125 c 128,-1,50
 301.733398438 240.021484375 301.733398438 240.021484375 306.684570312 252.709960938 c 128,-1,51
 311.635742188 265.397460938 311.635742188 265.397460938 314.400390625 274.173828125 c 128,-1,52
 317.166015625 282.950195312 317.166015625 282.950195312 318.40234375 302.067382812 c 128,-1,53
 319.639648438 321.185546875 319.639648438 321.185546875 319.864257812 333.192382812 c 128,-1,54
 320.08984375 345.200195312 320.08984375 345.200195312 320.08984375 370.296875 c 2,55,-1
 320.08984375 476.993164062 l 2,56,57
 320.08984375 478 320.08984375 478 319.083007812 478 c 2,58,-1
 212.38671875 478 l 2,59,60
 211.379882812 478 211.379882812 478 211.379882812 476.993164062 c 2,61,-1
 211.379882812 318.961914062 l 1,62,-1
 108.709960938 318.961914062 l 1,63,-1
 108.709960938 476.993164062 l 2,64,65
 108.709960938 478 108.709960938 478 107.703125 478 c 2,66,-1
 1.0068359375 478 l 2,67,68
 0 478 0 478 0 476.993164062 c 2,69,-1
 0 370.296875 l 2,70,71
 0 345.200195312 0 345.200195312 0.2255859375 333.192382812 c 128,-1,72
 0.4501953125 321.185546875 0.4501953125 321.185546875 1.6875 302.067382812 c 128,-1,73
 2.923828125 282.950195312 2.923828125 282.950195312 5.689453125 274.173828125 c 128,-1,74
 8.4541015625 265.397460938 8.4541015625 265.397460938 13.4052734375 252.709960938 c 128,-1,75
 18.3564453125 240.021484375 18.3564453125 240.021484375 26.1474609375 234.53125 c 128,-1,76
 33.9384765625 229.040039062 33.9384765625 229.040039062 45.0908203125 222.8359375 c 128,-1,77
 56.2421875 216.631835938 56.2421875 216.631835938 71.5458984375 214.48046875 c 128,-1,78
 86.8486328125 212.329101562 86.8486328125 212.329101562 106.696289062 212.266601562 c 1,79,-1
 106.696289062 1.892578125 l 2,40,41
212.38671875 1.892578125 m 1,80,-1
 107.703125 1.892578125 l 1,81,-1
 107.703125 213.271484375 l 1,82,83
 91.751953125 213.271484375 91.751953125 213.271484375 78.791015625 214.580078125 c 128,-1,84
 65.8310546875 215.888671875 65.8310546875 215.888671875 55.6328125 219.814453125 c 128,-1,85
 45.43359375 223.740234375 45.43359375 223.740234375 37.6064453125 227.141601562 c 128,-1,86
 29.779296875 230.543945312 29.779296875 230.543945312 24.0498046875 238.657226562 c 128,-1,87
 18.3212890625 246.770507812 18.3212890625 246.770507812 14.3466796875 252.266601562 c 128,-1,88
 10.3720703125 257.76171875 10.3720703125 257.76171875 7.83203125 270.0625 c 128,-1,89
 5.2919921875 282.362304688 5.2919921875 282.362304688 3.890625 289.952148438 c 128,-1,90
 2.48828125 297.541992188 2.48828125 297.541992188 1.857421875 314.029296875 c 128,-1,91
 1.2265625 330.517578125 1.2265625 330.517578125 1.1162109375 340.200195312 c 128,-1,92
 1.0068359375 349.883789062 1.0068359375 349.883789062 1.0068359375 370.296875 c 2,93,-1
 1.0068359375 476.993164062 l 1,94,-1
 107.703125 476.993164062 l 1,95,-1
 107.703125 317.955078125 l 1,96,-1
 212.38671875 317.955078125 l 1,97,-1
 212.38671875 476.993164062 l 1,98,-1
 319.083007812 476.993164062 l 1,99,-1
 319.083007812 370.296875 l 2,100,101
 319.083007812 349.883789062 319.083007812 349.883789062 318.973632812 340.200195312 c 128,-1,102
 318.86328125 330.517578125 318.86328125 330.517578125 318.232421875 314.029296875 c 128,-1,103
 317.6015625 297.541992188 317.6015625 297.541992188 316.19921875 289.952148438 c 128,-1,104
 314.797851562 282.362304688 314.797851562 282.362304688 312.2578125 270.0625 c 128,-1,105
 309.717773438 257.76171875 309.717773438 257.76171875 305.743164062 252.266601562 c 128,-1,106
 301.768554688 246.770507812 301.768554688 246.770507812 296.040039062 238.657226562 c 128,-1,107
 290.310546875 230.543945312 290.310546875 230.543945312 282.483398438 227.141601562 c 128,-1,108
 274.65625 223.740234375 274.65625 223.740234375 264.45703125 219.814453125 c 128,-1,109
 254.258789062 215.888671875 254.258789062 215.888671875 241.298828125 214.580078125 c 128,-1,110
 228.337890625 213.271484375 228.337890625 213.271484375 212.38671875 213.271484375 c 1,111,-1
 212.38671875 1.892578125 l 1,80,-1
EndSplineSet
EndChar

StartChar: z
Encoding: 122 122 69
Width: 382
VWidth: 1000
GlyphClass: 1
Flags: W
LayerCount: 2
Fore
SplineSet
80.583984375 110.396484375 m 2,0,1
 80.109375 109.924804688 80.109375 109.924804688 80.3662109375 109.302734375 c 128,-1,2
 80.623046875 108.680664062 80.623046875 108.680664062 81.291015625 108.680664062 c 2,3,-1
 317.1328125 108.680664062 l 1,4,-1
 317.1328125 4.3076171875 l 1,5,-1
 2.0068359375 4.3076171875 l 1,6,-1
 2.0068359375 135.359375 l 1,7,-1
 238.556640625 369.904296875 l 2,8,9
 239.032226562 370.375976562 239.032226562 370.375976562 238.775390625 370.998046875 c 128,-1,10
 238.518554688 371.620117188 238.518554688 371.620117188 237.850585938 371.620117188 c 2,11,-1
 2.0068359375 371.620117188 l 1,12,-1
 2.0068359375 475.993164062 l 1,13,-1
 317.1328125 475.993164062 l 1,14,-1
 317.1328125 344.940429688 l 1,15,-1
 80.583984375 110.396484375 l 2,0,1
0.296875 136.489257812 m 2,16,17
 0 136.194335938 0 136.194335938 0 3.3037109375 c 0,18,19
 0 2.30078125 0 2.30078125 1.00390625 2.30078125 c 2,20,-1
 318.13671875 2.30078125 l 2,21,22
 319.139648438 2.30078125 319.139648438 2.30078125 319.139648438 3.3037109375 c 2,23,-1
 319.139648438 109.68359375 l 2,24,25
 319.139648438 110.6875 319.139648438 110.6875 318.13671875 110.6875 c 2,26,-1
 83.728515625 110.6875 l 1,27,-1
 318.842773438 343.810546875 l 2,28,29
 319.139648438 344.10546875 319.139648438 344.10546875 319.139648438 476.99609375 c 0,30,31
 319.139648438 478 319.139648438 478 318.13671875 478 c 2,32,-1
 1.00390625 478 l 2,33,34
 0 478 0 478 0 476.99609375 c 2,35,-1
 0 370.616210938 l 2,36,37
 0 369.61328125 0 369.61328125 1.00390625 369.61328125 c 2,38,-1
 235.413085938 369.61328125 l 1,39,-1
 0.296875 136.489257812 l 2,16,17
318.13671875 109.68359375 m 1,40,-1
 318.13671875 3.3037109375 l 1,41,-1
 1.00390625 3.3037109375 l 1,42,-1
 1.00390625 135.776367188 l 1,43,-1
 237.850585938 370.616210938 l 1,44,-1
 1.00390625 370.616210938 l 1,45,-1
 1.00390625 476.99609375 l 1,46,-1
 318.13671875 476.99609375 l 1,47,-1
 318.13671875 344.522460938 l 1,48,-1
 81.291015625 109.68359375 l 1,49,-1
 318.13671875 109.68359375 l 1,40,-1
EndSplineSet
EndChar

StartChar: H
Encoding: 72 72 70
Width: 595
Flags: W
LayerCount: 2
Fore
SplineSet
0.0185546875 3.3046875 m 2,0,-1
 107.98046875 3.3046875 l 2,1,2
 108.999023438 3.3046875 108.999023438 3.3046875 108.999023438 4.3232421875 c 2,3,-1
 108.999023438 270.153320312 l 1,4,-1
 426.772460938 270.153320312 l 1,5,-1
 426.772460938 4.3232421875 l 2,6,7
 426.772460938 3.3046875 426.772460938 3.3046875 427.791015625 3.3046875 c 2,8,-1
 535.751953125 3.3046875 l 2,9,10
 536.770507812 3.3046875 536.770507812 3.3046875 536.770507812 4.3232421875 c 2,11,-1
 536.770507812 645.981445312 l 2,12,13
 536.770507812 647 536.770507812 647 535.751953125 647 c 2,14,-1
 427.791015625 647 l 2,15,16
 426.772460938 647 426.772460938 647 426.772460938 645.981445312 c 2,17,-1
 426.772460938 380.151367188 l 1,18,-1
 108.999023438 380.151367188 l 1,19,-1
 108.999023438 645.981445312 l 2,20,21
 108.999023438 647 108.999023438 647 107.98046875 647 c 2,22,-1
 0.0185546875 647 l 2,23,24
 -1 647 -1 647 -1 645.981445312 c 2,25,-1
 -1 4.3232421875 l 2,26,27
 -1 3.3046875 -1 3.3046875 0.0185546875 3.3046875 c 2,0,-1
106.961914062 5.341796875 m 1,28,-1
 1.037109375 5.341796875 l 1,29,-1
 1.037109375 644.962890625 l 1,30,-1
 106.961914062 644.962890625 l 1,31,-1
 106.961914062 379.1328125 l 2,32,33
 106.961914062 378.114257812 106.961914062 378.114257812 107.98046875 378.114257812 c 2,34,-1
 427.791015625 378.114257812 l 2,35,36
 428.809570312 378.114257812 428.809570312 378.114257812 428.809570312 379.1328125 c 2,37,-1
 428.809570312 644.962890625 l 1,38,-1
 534.733398438 644.962890625 l 1,39,-1
 534.733398438 5.341796875 l 1,40,-1
 428.809570312 5.341796875 l 1,41,-1
 428.809570312 271.171875 l 2,42,43
 428.809570312 272.190429688 428.809570312 272.190429688 427.791015625 272.190429688 c 2,44,-1
 107.98046875 272.190429688 l 2,45,46
 106.961914062 272.190429688 106.961914062 272.190429688 106.961914062 271.171875 c 2,47,-1
 106.961914062 5.341796875 l 1,28,-1
0.0185546875 4.3232421875 m 1,48,-1
 0.0185546875 645.981445312 l 1,49,-1
 107.98046875 645.981445312 l 1,50,-1
 107.98046875 379.1328125 l 1,51,-1
 427.791015625 379.1328125 l 1,52,-1
 427.791015625 645.981445312 l 1,53,-1
 535.751953125 645.981445312 l 1,54,-1
 535.751953125 4.3232421875 l 1,55,-1
 427.791015625 4.3232421875 l 1,56,-1
 427.791015625 271.171875 l 1,57,-1
 107.98046875 271.171875 l 1,58,-1
 107.98046875 4.3232421875 l 1,59,-1
 0.0185546875 4.3232421875 l 1,48,-1
EndSplineSet
EndChar
